<svg viewBox="0 0 480 521" fill="none" xmlns="http://www.w3.org/2000/svg">
<path d="M228.777 263.585L238.76 264.865L232.085 377.469C231.929 380.113 229.739 382.177 227.091 382.177L219.119 382.177L228.777 263.585Z" fill="black"/>
<path d="M295.044 263.585L285.062 264.865L291.736 377.469C291.893 380.113 294.082 382.177 296.731 382.177L304.702 382.177L295.044 263.585Z" fill="black"/>
<path d="M226.802 344.003H297.286L297.701 354.011H225.982L226.802 344.003Z" fill="black" stroke="black" stroke-width="1.05631" stroke-linejoin="round"/>
<path fill-rule="evenodd" clip-rule="evenodd" d="M229.184 361.535C227.64 361.337 227.034 361.26 226.847 363.693C226.596 366.96 225.34 376.004 225.089 377.511C225.066 377.644 225.046 377.797 225.024 377.965C224.794 379.699 224.349 383.061 219.31 383.29C214.889 383.491 211.941 382.703 211.02 382.285V380.275L212.778 379.019C214.385 362.946 217.122 317.994 218.965 287.736C219.906 272.274 220.614 260.649 220.818 258.678C221.571 251.392 224.997 243.102 232.012 243.102H291.719C301.494 243.102 302.122 250.035 302.735 256.792C302.792 257.424 302.849 258.055 302.913 258.678C303.117 260.649 303.825 272.274 304.767 287.737C306.609 317.994 309.346 362.946 310.953 379.019L312.712 380.275V382.285C311.79 382.703 308.843 383.491 304.421 383.29C299.382 383.061 298.937 379.699 298.707 377.965C298.685 377.797 298.665 377.644 298.642 377.511C298.391 376.004 297.135 366.96 296.884 363.693C296.658 360.762 246.285 361.474 233.787 361.65C232.36 361.67 231.427 361.684 231.118 361.684C230.35 361.684 229.712 361.602 229.184 361.535ZM229.066 345.546L232.793 277.076C233.082 271.768 237.47 267.612 242.785 267.612H280.26C285.612 267.612 290.016 271.823 290.258 277.168L293.343 345.567C293.401 346.833 292.389 347.891 291.122 347.891H231.287C230.011 347.891 228.997 346.82 229.066 345.546Z" fill="#C03434"/>
<path d="M226.847 363.693L226.229 363.646L226.229 363.646L226.847 363.693ZM229.184 361.535L229.263 360.919H229.263L229.184 361.535ZM225.089 377.511L225.701 377.613L225.701 377.613L225.089 377.511ZM225.024 377.965L224.409 377.884L225.024 377.965ZM219.31 383.29L219.338 383.91H219.338L219.31 383.29ZM211.02 382.285H210.399V382.684L210.763 382.85L211.02 382.285ZM211.02 380.275L210.659 379.77L210.399 379.956V380.275H211.02ZM212.778 379.019L213.139 379.523L213.368 379.36L213.396 379.08L212.778 379.019ZM218.965 287.736L218.345 287.699L218.965 287.736ZM220.818 258.678L220.2 258.614L220.818 258.678ZM302.735 256.792L302.117 256.848V256.848L302.735 256.792ZM302.913 258.678L303.531 258.614V258.614L302.913 258.678ZM304.767 287.737L305.386 287.699L304.767 287.737ZM310.953 379.019L310.336 379.08L310.363 379.36L310.592 379.523L310.953 379.019ZM312.712 380.275H313.332V379.956L313.072 379.77L312.712 380.275ZM312.712 382.285L312.968 382.85L313.332 382.684V382.285H312.712ZM304.421 383.29L304.449 382.67L304.421 383.29ZM298.707 377.965L299.322 377.884L298.707 377.965ZM298.642 377.511L299.254 377.409V377.409L298.642 377.511ZM296.884 363.693L297.502 363.646L296.884 363.693ZM233.787 361.65L233.778 361.03H233.778L233.787 361.65ZM232.793 277.076L232.173 277.042L232.793 277.076ZM229.066 345.546L228.447 345.513L229.066 345.546ZM290.258 277.168L289.638 277.196L290.258 277.168ZM293.343 345.567L293.963 345.539L293.343 345.567ZM227.466 363.741C227.511 363.15 227.58 362.755 227.665 362.492C227.748 362.235 227.829 362.159 227.865 362.134C227.904 362.107 227.985 362.069 228.201 362.067C228.425 362.064 228.705 362.099 229.106 362.15L229.263 360.919C228.891 360.872 228.516 360.822 228.187 360.826C227.85 360.83 227.478 360.888 227.149 361.121C226.817 361.355 226.615 361.705 226.484 362.111C226.354 362.512 226.277 363.02 226.229 363.646L227.466 363.741ZM225.701 377.613C225.953 376.097 227.213 367.033 227.466 363.741L226.229 363.646C225.979 366.886 224.726 375.911 224.477 377.409L225.701 377.613ZM225.639 378.047C225.662 377.876 225.68 377.734 225.701 377.613L224.477 377.409C224.452 377.555 224.431 377.719 224.409 377.884L225.639 378.047ZM219.338 383.91C222.012 383.788 223.576 382.82 224.477 381.551C225.347 380.324 225.526 378.902 225.639 378.047L224.409 377.884C224.292 378.763 224.134 379.889 223.464 380.833C222.825 381.735 221.648 382.562 219.282 382.67L219.338 383.91ZM210.763 382.85C211.797 383.32 214.848 384.114 219.338 383.91L219.282 382.67C214.929 382.868 212.085 382.087 211.276 381.72L210.763 382.85ZM210.399 380.275V382.285H211.64V380.275H210.399ZM212.418 378.514L210.659 379.77L211.38 380.78L213.139 379.523L212.418 378.514ZM218.345 287.699C216.502 317.965 213.766 362.9 212.161 378.957L213.396 379.08C215.004 362.992 217.742 318.022 219.584 287.774L218.345 287.699ZM220.2 258.614C219.995 260.603 219.286 272.25 218.345 287.699L219.584 287.774C220.526 272.298 221.233 260.696 221.435 258.742L220.2 258.614ZM232.012 242.481C228.215 242.481 225.434 244.738 223.538 247.834C221.647 250.921 220.583 254.913 220.2 258.614L221.435 258.742C221.806 255.158 222.832 251.362 224.596 248.482C226.355 245.61 228.793 243.722 232.012 243.722V242.481ZM291.719 242.481H232.012V243.722H291.719V242.481ZM303.352 256.736C303.05 253.397 302.737 249.825 301.203 247.108C300.423 245.727 299.327 244.558 297.766 243.741C296.211 242.927 294.234 242.481 291.719 242.481V243.722C294.091 243.722 295.858 244.143 297.19 244.84C298.515 245.534 299.447 246.521 300.122 247.718C301.499 250.156 301.807 253.43 302.117 256.848L303.352 256.736ZM303.531 258.614C303.467 257.996 303.41 257.369 303.352 256.736L302.117 256.848C302.174 257.48 302.231 258.114 302.296 258.742L303.531 258.614ZM305.386 287.699C304.445 272.251 303.736 260.603 303.531 258.614L302.296 258.742C302.498 260.696 303.205 272.298 304.147 287.775L305.386 287.699ZM311.57 378.957C309.965 362.9 307.229 317.965 305.386 287.699L304.147 287.775C305.989 318.023 308.727 362.993 310.336 379.08L311.57 378.957ZM313.072 379.77L311.314 378.514L310.592 379.523L312.351 380.78L313.072 379.77ZM313.332 382.285V380.275H312.091V382.285H313.332ZM304.393 383.91C308.883 384.114 311.934 383.32 312.968 382.85L312.455 381.72C311.646 382.087 308.802 382.868 304.449 382.67L304.393 383.91ZM298.092 378.047C298.205 378.902 298.384 380.324 299.254 381.551C300.155 382.82 301.719 383.788 304.393 383.91L304.449 382.67C302.084 382.562 300.906 381.735 300.267 380.833C299.597 379.889 299.439 378.763 299.322 377.884L298.092 378.047ZM298.03 377.613C298.051 377.734 298.069 377.876 298.092 378.047L299.322 377.884C299.3 377.719 299.279 377.555 299.254 377.409L298.03 377.613ZM296.265 363.741C296.518 367.033 297.778 376.097 298.03 377.613L299.254 377.409C299.005 375.911 297.752 366.886 297.502 363.646L296.265 363.741ZM233.795 362.271C240.045 362.182 255.756 361.96 269.93 362.127C277.02 362.21 283.713 362.39 288.644 362.732C291.114 362.903 293.12 363.113 294.509 363.367C295.208 363.495 295.717 363.629 296.042 363.761C296.207 363.827 296.29 363.88 296.323 363.907C296.358 363.937 296.276 363.884 296.265 363.741L297.502 363.646C297.477 363.32 297.283 363.091 297.114 362.951C296.942 362.809 296.728 362.7 296.508 362.611C296.065 362.431 295.457 362.279 294.732 362.147C293.274 361.879 291.211 361.666 288.73 361.494C283.762 361.15 277.039 360.969 269.945 360.886C255.752 360.719 240.027 360.942 233.778 361.03L233.795 362.271ZM231.118 362.304C231.433 362.304 232.373 362.291 233.795 362.271L233.778 361.03C232.347 361.05 231.421 361.063 231.118 361.063V362.304ZM229.106 362.15C229.634 362.218 230.307 362.304 231.118 362.304V361.063C230.393 361.063 229.791 360.987 229.263 360.919L229.106 362.15ZM232.173 277.042L228.447 345.513L229.686 345.58L233.412 277.109L232.173 277.042ZM242.785 266.992C237.14 266.992 232.48 271.405 232.173 277.042L233.412 277.109C233.683 272.131 237.799 268.233 242.785 268.233V266.992ZM280.26 266.992H242.785V268.233H280.26V266.992ZM290.877 277.141C290.621 271.463 285.944 266.992 280.26 266.992V268.233C285.28 268.233 289.411 272.182 289.638 277.196L290.877 277.141ZM293.963 345.539L290.877 277.141L289.638 277.196L292.724 345.595L293.963 345.539ZM291.122 348.512C292.743 348.512 294.036 347.159 293.963 345.539L292.724 345.595C292.765 346.508 292.036 347.271 291.122 347.271V348.512ZM231.287 348.512H291.122V347.271H231.287V348.512ZM228.447 345.513C228.358 347.142 229.655 348.512 231.287 348.512V347.271C230.367 347.271 229.636 346.499 229.686 345.58L228.447 345.513Z" fill="black"/>
<path d="M297.701 250.601C297.555 251.416 296.257 253.136 292.234 253.492C288.211 253.848 254.699 254.678 238.446 255.048C233.854 255.048 228.606 253.492 225.982 251.713" stroke="black" stroke-width="1.24089" stroke-linejoin="round"/>
<path d="M265.929 248.806C265.929 248.806 265.928 248.807 265.925 248.809C265.928 248.807 265.929 248.806 265.929 248.806ZM264.252 248.824C264.744 248.883 265.145 248.954 265.444 249.032C265.151 249.13 264.757 249.23 264.27 249.325C263.047 249.561 261.333 249.744 259.422 249.813C257.512 249.882 255.789 249.823 254.553 249.675C254.06 249.616 253.659 249.545 253.36 249.467C253.653 249.368 254.047 249.269 254.535 249.174C255.757 248.938 257.471 248.755 259.382 248.686C261.292 248.617 263.015 248.676 264.252 248.824ZM252.86 249.277C252.86 249.277 252.862 249.278 252.864 249.28C252.861 249.278 252.86 249.277 252.86 249.277ZM252.875 249.693C252.875 249.693 252.876 249.692 252.879 249.69C252.877 249.692 252.875 249.693 252.875 249.693ZM265.94 249.219C265.943 249.221 265.944 249.222 265.944 249.222C265.944 249.222 265.942 249.221 265.94 249.219Z" fill="white" stroke="black" stroke-width="1.05631"/>
<path d="M224.185 215.437C221.097 220.326 219.467 230.77 219.039 235.38C245.543 243.101 269.753 238.597 278.545 235.38C278.224 223.48 273.077 213.184 269.539 209.646C266.001 206.108 265.357 207.716 264.714 207.074C264.199 206.561 260.854 205.144 259.246 204.5C257.702 202.956 254.314 202.356 252.813 202.249V200.641C251.526 200.384 246.701 200.534 244.45 200.641V202.249C239.303 202.764 238.231 204.179 238.338 204.823C236.794 205.08 233.835 206.431 232.548 207.074C230.94 206.431 228.045 209.326 224.185 215.437Z" fill="#FFDA68" stroke="black" stroke-width="0.938939"/>
<path d="M260.212 225.407C260.212 224.121 259.568 210.933 259.247 204.499L264.715 207.073C264.608 212.326 264.329 223.349 264.071 225.407C263.75 227.98 260.212 227.016 260.212 225.407Z" fill="#FFDA68" stroke="black" stroke-width="0.938939"/>
<path d="M214.535 238.594C215.565 236.793 217.966 235.7 219.038 235.378C243.485 242.454 268.681 238.594 278.867 235.378C283.37 236.664 285.622 239.881 282.727 241.489C279.832 243.098 267.288 246.958 249.596 246.958C231.905 246.958 219.038 243.098 217.109 242.454C215.179 241.811 213.249 240.846 214.535 238.594Z" fill="#FFDA68" stroke="black" stroke-width="0.938939"/>
<path d="M233.192 224.12C233.192 222.319 232.763 212.004 232.549 207.072L238.339 204.499C238.339 209.86 238.21 221.289 237.695 224.12C237.052 227.658 233.192 226.372 233.192 224.12Z" fill="#FFDA68"/>
<path d="M244.45 239.239V200.961C247.538 200.189 251.312 200.639 252.813 200.961L253.135 239.239C252.62 239.496 247.131 239.346 244.45 239.239Z" fill="#FFDA68"/>
<path d="M233.192 224.12C233.192 222.319 232.763 212.004 232.549 207.072L238.339 204.499C238.339 209.86 238.21 221.289 237.695 224.12C237.052 227.658 233.192 226.372 233.192 224.12Z" stroke="black" stroke-width="0.938939"/>
<path d="M244.45 239.239V200.961C247.538 200.189 251.312 200.639 252.813 200.961L253.135 239.239C252.62 239.496 247.131 239.346 244.45 239.239Z" stroke="black" stroke-width="0.938939"/>
<path d="M291.867 223.385V223.385H272.053C272.053 237.915 270.732 251.565 281.3 251.565C291.867 251.565 291.867 239.236 291.867 223.385Z" fill="white" stroke="black" stroke-width="0.962581" stroke-linecap="round" stroke-linejoin="round"/>
<path d="M291.729 231.247V231.247C291.729 231.247 288.137 233.402 281.412 233.402C274.686 233.402 272.028 231.247 272.028 231.247C272.028 241.619 271.094 251.363 281.412 251.363C291.729 251.363 291.729 242.562 291.729 231.247Z" fill="#BF7657" stroke="black" stroke-width="0.962581" stroke-linecap="round" stroke-linejoin="round"/>
<path d="M291.868 229.549C294.216 228.815 298.913 228.404 298.913 232.631C298.913 236.858 298.913 238.502 298.913 239.236C298.913 241.878 295.381 244.344 291.506 240.469" stroke="black" stroke-width="0.962581" stroke-linecap="round" stroke-linejoin="round"/>
<ellipse cx="10.1272" cy="3.5225" rx="10.1272" ry="3.5225" transform="matrix(-1 0 0 1 291.867 219.863)" fill="white" stroke="black" stroke-width="0.962581" stroke-linecap="round" stroke-linejoin="round"/>
<path d="M288.324 229.99C288.471 235.274 288.324 245.401 284.801 245.401" stroke="black" stroke-width="0.962581" stroke-linecap="round" stroke-linejoin="round"/>
<path d="M291.867 215.452C290.458 215.1 286.877 223.825 285.703 226.467L288.785 225.586C290.4 222.504 293.277 215.805 291.867 215.452Z" fill="#1361F0" stroke="black" stroke-width="0.962581" stroke-linecap="round" stroke-linejoin="round"/>
<path d="M275.576 229.99C275.576 235.274 275.576 245.841 279.098 245.841" stroke="black" stroke-width="0.962581" stroke-linecap="round" stroke-linejoin="round"/>
<path d="M281.741 229.99V245.401" stroke="black" stroke-width="0.962581" stroke-linecap="round" stroke-linejoin="round"/>
<path d="M12.4787 354.396C12.472 358.042 18.3692 364.434 21.9189 368.682L21.8943 382.013L7.95508 384.606C8.07739 380.524 7.98117 366.23 6.62007 357.566C4.91869 346.735 12.488 349.352 12.4787 354.396Z" fill="#465173" stroke="black" stroke-width="1.24296" stroke-linecap="round" stroke-linejoin="round"/>
<path d="M192.768 380.429C176.344 384.507 167.164 383.428 155.995 381.134C125.76 374.927 112.862 376.888 95.957 377.591C87.1514 377.957 76.7973 379.013 61.3977 380.501C55.1568 381.104 30.7378 383.929 22.6069 384.656L22.6059 362.593L78.5396 352.012L83.0188 344.928C84.2588 342.78 85.6613 340.452 87.1398 338.411C93.4531 329.698 107.549 311.006 112.103 313.62C119.528 317.882 166.367 332.448 193.106 336.765L205.78 338.419C205.78 338.419 209.192 376.352 192.768 380.429Z" fill="#BABECB"/>
<path d="M178.959 349.277C149.799 345.223 105.324 346.429 105.324 346.429L78.5396 352.012M78.5396 352.012L22.6059 362.593L22.6069 384.656C30.7378 383.929 55.1568 381.104 61.3977 380.501C76.7973 379.013 87.1514 377.957 95.957 377.591C112.862 376.888 125.76 374.927 155.995 381.134C167.164 383.428 176.344 384.507 192.768 380.429C209.192 376.352 205.78 338.419 205.78 338.419L193.106 336.765C166.367 332.448 119.528 317.882 112.103 313.62C107.549 311.006 93.4531 329.698 87.1398 338.411M78.5396 352.012C79.7298 351.486 83.1594 343.904 87.1398 338.411M78.5396 352.012L87.1398 338.411" stroke="black" stroke-width="1.24296" stroke-linecap="round" stroke-linejoin="round"/>
<path d="M111.703 337.607C113.992 338.099 121.717 346.38 121.717 346.38L107.325 346.38C107.325 346.38 109.413 337.116 111.703 337.607Z" fill="white" stroke="black" stroke-width="1.24296" stroke-linecap="round" stroke-linejoin="round"/>
<path d="M176.355 355.255C178.043 360.678 184.461 370.511 196.63 366.452" stroke="black" stroke-width="1.24296" stroke-linecap="round" stroke-linejoin="round"/>
<path d="M199.162 250.554L183.789 254.479C177.48 256.86 157.114 268.222 150.516 289.815C146.851 301.81 154.35 315.831 154.35 335.925C164.49 332.327 176.356 336.907 189.022 339.523C194.983 340.755 208.103 338.215 213.881 336.907C207.601 333.505 205.704 311.175 205.704 297.655C209.629 295.366 219.442 293.73 225.984 292.095C221.797 276.656 206.358 257.968 199.162 250.554Z" fill="#465173"/>
<path d="M205.704 297.655C209.629 295.366 219.442 293.73 225.984 292.095C221.797 276.656 206.358 257.968 199.162 250.554L183.789 254.479C177.48 256.86 157.114 268.222 150.516 289.815C146.851 301.81 154.35 315.831 154.35 335.925C164.49 332.327 176.356 336.907 189.022 339.523C194.983 340.755 208.103 338.215 213.881 336.907C207.601 333.505 205.704 311.175 205.704 297.655ZM205.704 297.655L199.162 300.926C199.162 292.095 199.162 278.039 197.854 268.544" stroke="black" stroke-width="0.888503" stroke-linecap="round" stroke-linejoin="round"/>
<path d="M175.375 266.591C164.254 279.675 154.787 325.349 154.023 335.925" stroke="black" stroke-width="0.888503" stroke-linecap="round" stroke-linejoin="round"/>
<path d="M226.311 292.479C219.457 296.733 208.648 306.152 199.489 301.596C207.983 298.253 225.238 291.749 226.311 292.479Z" fill="black" stroke="black" stroke-width="0.888503" stroke-linecap="round" stroke-linejoin="round"/>
<path d="M136.778 296.667L129.582 263.974L63.9263 235.517L76.6829 296.667L143.974 328.412L197.29 320.545L182.334 314.045C182.334 314.045 182.244 316.619 179.954 315.965C179.173 315.742 178.392 314.968 177.702 314.045C177.702 314.045 177.01 315.965 173.739 315.311C171.243 314.812 171.223 313.36 171.354 312.7C171.432 312.514 171.45 312.367 171.45 312.367C171.45 312.367 171.395 312.496 171.354 312.7C171.145 313.201 170.501 313.991 168.596 313.038C167.151 312.316 168.289 311.222 169.25 310.094C170.029 309.18 170.559 308.132 170.559 308.132L146.681 296.667H136.778Z" fill="white"/>
<path d="M136.778 296.667L129.582 263.974L63.9263 235.517L76.6829 296.667L143.974 328.412L197.29 320.545L182.334 314.045C182.334 314.045 182.244 316.619 179.954 315.965C179.173 315.742 178.392 314.968 177.702 314.045C177.702 314.045 177.01 315.965 173.739 315.311C170.468 314.657 171.45 312.367 171.45 312.367C171.45 312.367 171.213 314.347 168.596 313.038C167.151 312.316 168.289 311.222 169.25 310.094M136.778 296.667H146.681L170.559 308.132M136.778 296.667L141.684 322.507M170.559 308.132C170.559 308.132 170.029 309.18 169.25 310.094M170.559 308.132L169.25 310.094" stroke="black" stroke-width="0.888503" stroke-linecap="round" stroke-linejoin="round"/>
<path d="M101.992 276.404C103.627 278.039 105.917 282.095 101.992 285.235" stroke="black" stroke-width="0.888503" stroke-linecap="round" stroke-linejoin="round"/>
<path d="M96.7585 275.423C95.2775 276.997 93.2041 280.903 96.7585 283.927" stroke="black" stroke-width="0.888503" stroke-linecap="round" stroke-linejoin="round"/>
<path d="M140.611 299.035C143.193 297.243 143.64 289.114 147.377 287.547C161.908 284.517 160.221 302.146 162.286 304.045L162.618 304.207C162.497 304.193 162.387 304.138 162.286 304.045L151.99 299.035C151.482 301.419 150.569 301.999 150.059 302.192C148.667 302.719 147.609 301.366 147.393 300.877C147.598 301.481 145.79 302.408 144.696 301.967C143.578 301.516 143.64 300.851 143.64 299.949C141.629 301.753 139.691 299.674 140.611 299.035Z" fill="#F5B896"/>
<path d="M143.64 299.949C141.629 301.753 139.691 299.674 140.611 299.035C143.193 297.243 143.64 289.114 147.377 287.547C162.618 284.369 160.017 303.918 162.618 304.207L151.99 299.035M143.64 299.949C143.64 300.851 143.578 301.516 144.696 301.967C145.813 302.418 147.675 301.44 147.377 300.839M143.64 299.949C143.64 299.949 146.036 298.37 146.036 294.763M147.377 300.839C147.552 301.29 148.629 302.733 150.059 302.192C150.791 301.915 152.356 300.839 152.356 294.763C152.642 294.39 160.001 302.192 155.749 293.413M147.377 300.839C147.377 300.839 149.45 299.035 149.004 294.763" stroke="black" stroke-width="1.24296" stroke-linecap="round" stroke-linejoin="round"/>
<path d="M168.178 301.59C167.257 299.285 173.649 295.171 177.247 294.721C186.881 293.517 203.532 303.49 207.339 303.909C208.702 304.059 208.628 302.689 206.358 298.637C211.853 296.02 221.077 292.632 224.021 292.414C226.638 296.013 237.195 324.159 229.345 328.412C217.569 333.318 186.823 302.237 184.533 305.188C184.533 314.003 182.243 315.563 181.172 315.965C179.134 316.729 177.586 314.766 177.27 314.058C177.569 314.933 174.923 316.279 173.321 315.638C171.686 314.984 171.776 314.02 171.776 312.711C168.833 315.328 165.996 312.313 167.343 311.386C171.122 308.786 171.686 301.91 173.321 299.954C171.68 301.917 169.487 304.861 168.178 301.59Z" fill="#F5B896"/>
<path d="M171.776 312.711C168.833 315.328 165.996 312.313 167.343 311.386C171.122 308.786 171.686 301.91 173.321 299.954C171.68 301.917 169.487 304.861 168.178 301.59C167.257 299.285 173.649 295.171 177.247 294.721C186.881 293.517 203.532 303.49 207.339 303.909M171.776 312.711C171.776 314.02 171.686 314.984 173.321 315.638C174.957 316.292 177.683 314.875 177.247 314.003M171.776 312.711C171.776 312.711 175.284 310.421 175.284 305.188M177.247 314.003C177.502 314.657 179.078 316.75 181.172 315.965C182.243 315.563 184.533 314.003 184.533 305.188C186.823 302.237 217.569 333.318 229.345 328.412C237.195 324.159 226.638 296.013 224.021 292.414C221.077 292.632 211.853 296.02 206.358 298.637C208.628 302.689 208.702 304.059 207.339 303.909M177.247 314.003C177.247 314.003 180.281 311.386 179.627 305.188M224.021 311.386L207.339 303.909" stroke="black" stroke-width="0.888503" stroke-linecap="round" stroke-linejoin="round"/>
<path d="M164.163 235.052V209.865H194.91C194.91 217.061 194.256 220.114 194.91 221.641C197.418 219.787 202.695 217.323 203.741 222.295C204.788 227.267 201.433 230.155 198.598 230.482C196.505 241.734 196.545 249.008 197.854 251.733C195.237 256.967 186.078 256.095 181.826 255.004V246.827C164.294 247.35 164.163 240.939 164.163 235.052Z" fill="#F5B896" stroke="black" stroke-width="1.24296" stroke-linejoin="round"/>
<path d="M182.153 246.827C184.445 246.723 188.21 246.041 189.226 244.155C189.268 244.062 189.31 243.971 189.349 243.883C189.314 243.976 189.273 244.067 189.226 244.155C187.637 247.619 184.192 254.168 182.153 254.677V246.827Z" fill="black" stroke="black" stroke-width="1.24296" stroke-linecap="round" stroke-linejoin="round"/>
<path d="M197.945 230.284C197.945 238.783 197.617 234.863 197.617 239.442C227.383 220.674 208.084 188.089 185.842 192.866C179.409 191.23 165.3 192.473 160.328 210.529C161.67 214.037 166.631 216.067 172.431 217.194C172.863 217.278 175.589 205.221 176.029 205.295C175.702 214.454 176.244 217.661 176.029 217.725C184.341 218.935 192.493 218.475 195 218.057V221.001C197.508 219.583 201.87 218.05 203.178 222.76C204.487 227.471 200.67 229.411 197.945 230.284Z" fill="black" stroke="black" stroke-width="1.24296" stroke-linecap="round" stroke-linejoin="round"/>
<path d="M228.037 239.442C219.533 226.359 237.046 197.746 208.411 206.085C216.777 207.602 214.299 220.422 214.299 222.761C214.299 238.681 221.281 239.442 228.037 239.442Z" fill="black" stroke="black" stroke-width="0.981281"/>
<path d="M180.608 191.36C185.842 191.36 197.945 195.612 199.253 218.836" stroke="white" stroke-width="1.63547" stroke-linecap="round" stroke-linejoin="round"/>
<path d="M172.758 219.35C171.123 218.696 168.179 219.743 168.179 222.621" stroke="black" stroke-width="0.888562" stroke-linecap="round" stroke-linejoin="round"/>
<path d="M181.917 220.004C182.898 219.677 184.992 220.397 185.515 221.967" stroke="black" stroke-width="0.888562" stroke-linecap="round" stroke-linejoin="round"/>
<path d="M186.496 230.611C186.496 233.227 184.861 235.568 182.467 236.936C178.804 239.029 174.394 238.461 172 236.609" stroke="black" stroke-width="0.888562" stroke-linecap="round" stroke-linejoin="round"/>
<circle cx="181.917" cy="223.533" r="0.981281" fill="black"/>
<circle cx="171.45" cy="222.871" r="0.981281" fill="black"/>
<path d="M179.163 226.8C178.636 225.072 176.809 224.098 175.081 224.625C173.353 225.151 172.378 226.979 172.905 228.707C173.217 229.731 173.985 230.49 174.919 230.829" stroke="black" stroke-width="0.888562" stroke-linecap="round" stroke-linejoin="round"/>
<path d="M183.552 268.881C178.662 269.146 181.949 259.201 182.357 252.563L197.944 250.563C197.639 260.189 189.665 268.549 183.552 268.881Z" fill="#F5B896" stroke="black" stroke-width="1.24296" stroke-linecap="round" stroke-linejoin="round"/>
<path d="M197.291 251.545V249.909L186.169 251.218L182.244 254.489L197.291 251.545Z" fill="#F5B896"/>
<path d="M182.244 255.797C182.244 255.797 186.473 252.039 186.823 250.236C187.174 248.433 182.244 252.551 182.244 252.551V255.797Z" fill="black"/>
<path d="M386.957 390.676C383.699 390.676 378.157 386.513 374.401 382.825H362.489L363.455 395.315C367.104 395.196 376.333 395.315 384.059 396.743C393.717 398.527 391.464 390.676 386.957 390.676Z" fill="#465173" stroke="black" stroke-width="1.05532" stroke-linecap="round" stroke-linejoin="round"/>
<path d="M305.158 388.677C302.825 386.203 304.415 381.133 304.139 375.589L295.609 366.545L288.124 376.399C290.815 379.082 295.766 395.258 302.103 395.258C311.906 395.257 308.386 392.099 305.158 388.677Z" fill="#465173" stroke="black" stroke-width="1.05532" stroke-linecap="round" stroke-linejoin="round"/>
<path d="M315.568 260.854C312.048 244.25 318.153 228.486 323.323 225.079C323.323 225.079 329.964 219.773 340.951 218.118C351.938 216.463 359.37 219.442 359.37 219.442C367.126 240.859 380.52 277.617 380.52 288.505C380.52 292.888 375.349 380.593 377.611 384.244H360.162C360.162 384.244 359.37 315.466 356.607 299.745C353.843 284.024 348.851 262.514 348.851 262.514C348.851 262.514 343.358 301.15 337.218 310.984C331.079 320.819 306.196 377.016 306.196 377.016L291.655 365.777C302.694 341.045 309.764 324.932 313.629 310.984C319.468 289.91 317.86 271.671 315.568 260.854Z" fill="#BABECB" stroke="black" stroke-width="1.05532" stroke-linecap="round" stroke-linejoin="round"/>
<path d="M337.375 236.053C336.087 242.068 331.193 252.971 321.92 248.459" stroke="black" stroke-width="1.05532" stroke-linecap="round" stroke-linejoin="round"/>
<path d="M348.966 262.996C348.966 262.996 350.254 249.696 350.254 233.926C350.254 233.926 352.186 246.688 352.508 254.133C352.83 261.578 351.542 274.696 351.542 274.696L348.966 262.996Z" fill="black" stroke="black" stroke-width="1.2235" stroke-linecap="round" stroke-linejoin="round"/>
<path d="M342.938 143.236C363.544 145.168 371.057 139.909 376.745 137.762C377.3 146.787 384.15 155.363 386.726 159.012C378.741 161.846 361.505 160.837 353.885 159.978C367.279 182.388 371.486 209.24 371.915 223.407C359.269 223.407 349.629 224.974 336.731 226.958C324.174 228.89 319.004 225.661 313.316 224.373C319.498 221.024 321.365 199.044 321.365 185.736C317.502 183.482 307.843 181.872 301.403 180.263C305.524 165.065 320.722 146.67 327.805 139.372L342.938 143.236Z" fill="#465173"/>
<path d="M321.365 185.736C317.502 183.482 307.843 181.872 301.403 180.263C305.524 165.065 320.722 146.67 327.805 139.372L342.938 143.236C363.544 145.168 371.057 139.909 376.745 137.762C377.3 146.787 384.15 155.363 386.726 159.012C378.741 161.846 361.505 160.837 353.885 159.978M321.365 185.736C321.365 199.044 319.498 221.024 313.316 224.373C319.004 225.661 324.174 228.89 336.731 226.958C349.629 224.974 359.269 223.407 371.915 223.407C371.486 209.24 367.279 182.388 353.885 159.978M321.365 185.736L327.805 188.956C327.805 177.052 327.805 166.427 329.093 157.081M353.885 159.978C352.848 158.175 350.466 155.587 349.288 154.192" stroke="black" stroke-width="1.05532" stroke-linecap="round" stroke-linejoin="round"/>
<path d="M369.018 223.407C372.366 213.619 366.549 193.893 364.51 183.804C367.859 193.85 371.486 212.997 372.237 223.407H369.018Z" fill="black" stroke="black" stroke-width="1.2235" stroke-linecap="round" stroke-linejoin="round"/>
<path d="M387.37 158.69C388.658 158.433 388.817 154.075 388.28 151.607C386.992 151.929 383.417 150.328 381.807 150.65C382.773 152.904 386.082 158.948 387.37 158.69Z" fill="black" stroke="black" stroke-width="1.2235" stroke-linecap="round" stroke-linejoin="round"/>
<path d="M301.636 180.272C303.89 184.136 312.261 197.659 327.716 188.98C319.345 183.814 307.753 179.95 301.636 180.272Z" fill="black" stroke="black" stroke-width="1.05532" stroke-linecap="round" stroke-linejoin="round"/>
<path d="M394.132 126.815C393.359 131.194 382.863 135.723 377.067 137.762C377.067 144.717 381.575 149.89 383.829 151.929C387.692 151.929 404.756 144.202 406.367 135.186C407.272 130.115 406.152 99.3399 404.435 85.6024C407.333 83.3486 405.401 77.875 404.435 75.2992C403.662 73.2385 399.176 75.2992 397.03 76.5871C393.81 70.7916 387.427 72.2831 389.302 73.6894C393.166 76.5871 393.381 80.88 394.132 83.9925C397.03 85.9243 395.098 121.341 394.132 126.815Z" fill="#BF7657" stroke="black" stroke-width="1.2235" stroke-linecap="round" stroke-linejoin="round"/>
<path d="M394.132 126.815C393.359 131.194 382.863 135.723 377.067 137.762C377.067 144.717 381.575 149.89 383.829 151.929C387.692 151.929 404.756 144.202 406.367 135.186C407.272 130.115 406.152 99.3399 404.435 85.6024C407.333 83.3486 405.401 77.875 404.435 75.2992C403.662 73.2385 399.176 75.2992 397.03 76.5871C393.81 70.7916 387.427 72.2831 389.302 73.6894C393.166 76.5871 393.461 80.8618 394.132 83.9925C394.686 86.5777 395.098 121.341 394.132 126.815Z" fill="#BF7657" stroke="black" stroke-width="1.2235" stroke-linejoin="round"/>
<path d="M357.66 187.999C357.66 185.745 352.919 183.29 349.377 182.848C339.893 181.662 323.503 191.48 319.756 191.892C319.345 192.076 318.487 190.691 320.722 186.702C315.313 184.126 306.233 180.792 303.335 180.577C300.76 184.119 290.367 211.825 298.095 216.011C309.686 220.84 339.951 190.246 342.205 193.151C342.205 201.827 344.459 203.364 345.514 203.759C347.574 204.532 349.288 202.81 348.966 201.844C349.288 202.81 351.631 204.081 353.241 203.437C354.851 202.793 355.405 201.827 354.44 200.556C357.338 203.132 360.452 200.164 359.126 199.252C355.674 196.877 354.948 190.878 353.575 188.488C355.379 190.95 357.66 191.262 357.66 187.999Z" fill="#BF7657"/>
<path d="M354.44 200.556C357.338 203.132 360.452 200.164 359.126 199.252C355.406 196.692 354.851 189.924 353.241 187.999C355.084 190.897 357.66 191.467 357.66 187.999C357.66 185.745 352.919 183.29 349.377 182.848C339.893 181.662 323.503 191.48 319.756 191.892M354.44 200.556C355.405 201.827 354.851 202.793 353.241 203.437C351.631 204.081 349.288 202.81 348.966 201.844M354.44 200.556C354.44 200.556 351.309 198.302 351.309 193.151M348.966 201.844C349.288 202.81 347.574 204.532 345.514 203.759C344.459 203.364 342.205 201.827 342.205 193.151C339.951 190.246 309.686 220.84 298.095 216.011C290.367 211.825 300.76 184.119 303.335 180.577C306.233 180.792 315.313 184.126 320.722 186.702C318.487 190.691 319.345 192.076 319.756 191.892M348.966 201.844C348.966 201.844 346.391 199.252 347.035 193.151M303.335 199.252L319.756 191.892" stroke="black" stroke-width="1.05532" stroke-linecap="round" stroke-linejoin="round"/>
<path d="M398.18 77.6784C398.663 79.0023 401.895 78.3236 404.067 77.5317C406.239 76.7398 406.4 75.7855 406.045 74.8106C405.69 73.8358 404.952 73.2095 402.78 74.0014C400.608 74.7933 397.698 76.3546 398.18 77.6784Z" fill="#BF7657" stroke="black" stroke-width="1.05532" stroke-linecap="round" stroke-linejoin="round"/>
<path d="M399.468 80.8981C399.951 82.222 403.183 81.5433 405.355 80.7514C407.527 79.9595 407.689 79.0052 407.333 78.0303C406.978 77.0555 406.24 76.4292 404.068 77.2211C401.896 78.013 398.986 79.5743 399.468 80.8981Z" fill="#BF7657" stroke="black" stroke-width="1.05532" stroke-linecap="round" stroke-linejoin="round"/>
<path d="M400.112 84.1179C400.595 85.4417 403.827 84.7631 405.999 83.9711C408.17 83.1792 408.332 82.2249 407.977 81.2501C407.621 80.2752 406.883 79.6489 404.711 80.4409C402.54 81.2328 399.629 82.794 400.112 84.1179Z" fill="#BF7657" stroke="black" stroke-width="1.05532" stroke-linecap="round" stroke-linejoin="round"/>
<path d="M389.213 184.763L396.296 152.582L460.924 124.57L448.367 184.763L382.13 216.011L329.648 208.267L343.726 202.513C343.726 202.513 345.425 204.081 346.069 204.098C346.708 204.114 349.566 203.464 348.945 201.905C348.934 201.882 348.93 201.869 348.93 201.869C348.935 201.881 348.94 201.893 348.945 201.905C349.06 202.165 349.877 203.706 352.83 203.115C355.496 202.582 354.63 200.956 354.253 200.413C354.163 200.306 354.118 200.234 354.118 200.234C354.118 200.234 354.175 200.3 354.253 200.413C354.632 200.86 355.814 201.917 357.893 200.878C359.315 200.167 358.839 199.09 357.893 197.98C357.126 197.081 356.605 196.049 356.605 196.049L379.465 184.763H389.213Z" fill="white"/>
<path d="M389.213 184.763L396.296 152.582L460.924 124.57L448.367 184.763L382.13 216.011L329.648 208.267L343.726 202.513C343.726 202.513 345.425 204.081 346.069 204.098C346.713 204.115 349.61 203.454 348.93 201.869C348.93 201.869 349.61 203.759 352.83 203.115C356.05 202.471 354.118 200.234 354.118 200.234C354.118 200.234 355.317 202.166 357.893 200.878C359.315 200.167 358.839 199.09 357.893 197.98M389.213 184.763H379.465L356.605 196.049M389.213 184.763L384.383 210.199M356.605 196.049C356.605 196.049 357.126 197.081 357.893 197.98M356.605 196.049L357.893 197.98" stroke="black" stroke-width="1.2235" stroke-linecap="round" stroke-linejoin="round"/>
<path d="M420.878 166.105C419.269 167.715 417.015 171.707 420.878 174.798" stroke="black" stroke-width="1.2235" stroke-linecap="round" stroke-linejoin="round"/>
<path d="M426.03 165.139C427.488 166.689 429.529 170.534 426.03 173.51" stroke="black" stroke-width="1.2235" stroke-linecap="round" stroke-linejoin="round"/>
<path d="M361.653 123.29V98.4981H334.93C334.93 105.582 332.032 108.587 331.388 110.089C328.919 108.265 323.725 105.839 322.695 110.733C321.664 115.627 326.988 117.495 329.778 117.817C331.839 128.892 329.778 137.028 328.49 139.711C331.066 144.862 340.081 144.004 344.267 142.93V134.881C361.525 135.396 361.653 129.086 361.653 123.29Z" fill="#BF7657" stroke="black" stroke-width="1.2235" stroke-linejoin="round"/>
<path d="M343.945 134.881C341.689 134.779 337.983 134.108 336.983 132.251C336.941 132.159 336.901 132.07 336.861 131.983C336.896 132.075 336.937 132.164 336.983 132.251C338.547 135.66 341.938 142.107 343.945 142.608V134.881Z" fill="black" stroke="black" stroke-width="1.2235" stroke-linecap="round" stroke-linejoin="round"/>
<path d="M334.608 96.2369C335.38 101.646 332.867 108.043 331.58 110.082C330.076 108.363 328.168 107.506 328.168 107.506C327.772 104.174 327.668 96.8888 328.168 94.949L334.608 96.2369Z" fill="black" stroke="black" stroke-width="0.96592" stroke-linecap="round" stroke-linejoin="round"/>
<path d="M344.911 80.1382C329.648 80.1382 327.716 91.622 327.394 95.9149C335.765 103.964 360.366 104.608 370.347 100.745C378.332 97.6536 367.557 94.1977 362.62 92.6952C362.298 88.8315 359.078 80.1382 344.911 80.1382Z" fill="white" stroke="black" stroke-width="0.96592" stroke-linecap="round" stroke-linejoin="round"/>
<path d="M361.332 94.3051C358.863 96.0222 351.028 98.9415 339.437 96.8808" stroke="black" stroke-width="0.96592" stroke-linecap="round" stroke-linejoin="round"/>
<path d="M346.86 116.341C347.378 114.64 349.178 113.682 350.879 114.2C352.58 114.718 353.538 116.517 353.02 118.218C352.713 119.226 351.957 119.973 351.037 120.307" stroke="black" stroke-width="0.96592" stroke-linecap="round" stroke-linejoin="round"/>
<circle cx="0.96592" cy="0.96592" r="0.96592" transform="matrix(-1 0 0 1 345.526 113.43)" fill="black"/>
<circle cx="0.96592" cy="0.96592" r="0.96592" transform="matrix(-1 0 0 1 356.049 112.979)" fill="black"/>
<path d="M345.103 107.828C344.459 106.54 341.239 106.54 340.917 109.438" stroke="black" stroke-width="0.96592" stroke-linecap="round" stroke-linejoin="round"/>
<path d="M353.474 108.6C353.796 107.506 357.015 106.862 357.015 109.559" stroke="black" stroke-width="0.96592" stroke-linecap="round" stroke-linejoin="round"/>
<path d="M346.779 128.467C342.777 127.358 341.131 121.929 340.809 119.353C344.1 122.282 350.632 124.524 356.244 121.769C355.561 126.925 351.542 129.787 346.779 128.467Z" fill="black" stroke="black" stroke-width="0.96592" stroke-linecap="round" stroke-linejoin="round"/>
<path d="M348.002 126.664C350.059 125.344 352.036 126.414 352.768 127.114C347.343 129.821 344.619 126.859 343.935 125.039C345.493 123.846 347.295 125.625 348.002 126.664Z" fill="white"/>
<path d="M344.458 143.889C347.034 157.412 344.265 169.325 342.205 170.613C340.144 171.901 340.917 159.988 327.716 139.381" stroke="black" stroke-width="0.96592" stroke-linecap="round" stroke-linejoin="round"/>
<rect width="8.37131" height="16.0987" rx="0.643947" transform="matrix(-1 0 0 1 346.068 171.257)" fill="#E74F4F" stroke="black" stroke-width="0.96592" stroke-linecap="round" stroke-linejoin="round"/>
<path d="M345.747 175.442H338.019" stroke="black" stroke-width="0.96592" stroke-linecap="round" stroke-linejoin="round"/>
</svg>
