<svg viewBox="0 0 491 421" fill="none" xmlns="http://www.w3.org/2000/svg">
<path d="M247.906 324.36C238.415 323.808 230.139 330.751 229.031 340.194C217 338.394 205.19 344.594 199.84 355.519C192.851 348.111 181.55 346.796 173.046 352.401C164.543 358.006 161.296 368.91 165.349 378.254C157.902 376.458 150.043 378.174 144.023 382.912C138.004 387.649 134.488 394.884 134.482 402.544C134.482 402.544 134.482 414.975 138.501 419.747" stroke="black" stroke-width="1.45086"/>
<path d="M224.363 270.283L204.206 284.601C193.843 292.479 189.531 306.268 193.496 318.868L207.21 362.486C207.21 362.486 207.21 328.018 226.065 322.232C244.919 316.446 224.363 270.283 224.363 270.283V270.283Z" fill="#465173" stroke="#465173" stroke-width="1.45086"/>
<path d="M275.978 270.283L296.134 284.601C306.497 292.479 310.809 306.268 306.844 318.868L293.131 362.486C293.131 362.486 293.131 328.018 274.276 322.232C255.421 316.446 275.978 270.283 275.978 270.283Z" fill="#465173" stroke="#465173" stroke-width="1.45086"/>
<path d="M269.914 335.806L266.94 337.336C257.415 342.236 246.107 342.224 236.593 337.303L233.701 335.806V311.235H269.914V335.806Z" fill="#465173" stroke="#465173" stroke-width="1.45086"/>
<path d="M226.031 321.934L214.796 229.338C212.209 212.903 216.805 196.147 227.416 183.331L251.184 154.629C251.306 154.481 251.488 154.395 251.68 154.395C251.872 154.395 252.054 154.481 252.176 154.629L276.073 183.378C286.697 196.159 291.324 212.884 288.782 229.309L277.623 322.493L276.883 323.154C262.592 335.689 241.182 335.547 227.059 322.823L226.031 321.934Z" fill="#BABECB" stroke="#465173" stroke-width="1.45086"/>
<path d="M251.809 210.507V280.054" stroke="#465173" stroke-width="1.45086"/>
<path d="M258.596 285.883L251.819 370.01L245.045 285.89C244.787 282.724 247.896 280.044 251.819 280.044C255.744 280.038 258.85 282.718 258.596 285.883Z" fill="#465173" stroke="#465173" stroke-width="1.45086"/>
<ellipse cx="251.809" cy="238.528" rx="21.1217" ry="21.1217" fill="#E9EAEE" stroke="#465173" stroke-width="1.45086"/>
<ellipse cx="251.809" cy="238.528" rx="15.2399" ry="15.2399" fill="#465173" stroke="#465173" stroke-width="1.45086"/>
<path d="M254.003 223.447L237.994 244.962C239.031 247.182 240.587 249.121 242.531 250.615L260.725 226.163C258.738 224.726 256.431 223.794 254.003 223.447V223.447Z" fill="#E9EAEE"/>
<path d="M249.648 253.612L265.641 232.134C265.105 230.981 264.428 229.899 263.626 228.912L245.983 252.618C247.158 253.103 248.389 253.437 249.648 253.612Z" fill="#E9EAEE"/>
<path d="M394.407 410.449C394.409 401.084 388.932 392.583 380.403 388.716C371.874 384.848 361.871 386.328 354.827 392.499C352.154 383.332 345.16 376.056 336.105 373.024C327.05 369.993 317.085 371.59 309.431 377.299C308.534 368.871 301.424 362.477 292.949 362.475C292.503 362.475 292.06 362.498 291.627 362.532C294.197 355.049 292.995 346.786 288.399 340.346C283.804 333.906 276.381 330.082 268.47 330.079" stroke="black" stroke-width="1.45086"/>
<ellipse cx="251.809" cy="238.528" rx="15.2399" ry="15.2399" stroke="black" stroke-width="1.45086"/>
<path d="M216.174 204.866C216.174 204.866 251.809 217.403 286.581 205.196" stroke="black" stroke-width="1.45086"/>
<path d="M271.371 246.501L280.547 245.279L278.535 272.296L283.624 272.256" stroke="black" stroke-width="1.45086"/>
<path d="M280.547 245.279C280.547 245.279 283.564 218.123 281.129 206.908" stroke="black" stroke-width="1.45086"/>
<path d="M278.535 272.296L274.943 310.531C274.943 310.531 265.77 317.533 256.059 317.407" stroke="black" stroke-width="1.45086"/>
<path d="M251.819 266.338C251.819 266.338 240.455 269.563 228.388 264.686" stroke="black" stroke-width="1.45086"/>
<path d="M216.174 239.519C216.174 239.519 223.213 244.562 226.517 243.412C227.237 252.608 230.684 287.912 230.684 287.912C230.684 287.912 224.045 288.391 221.56 285.008" stroke="black" stroke-width="1.45086"/>
<path d="M251.809 154.755V125.154" stroke="black" stroke-width="1.45086"/>
<path d="M133.703 402.668C125.748 398.42 115.872 400.828 110.764 408.259C106.405 406.154 101.27 406.437 97.1686 409.009C93.0675 411.581 90.5767 416.081 90.5742 420.922" stroke="black" stroke-width="1.45086"/>
<path d="M301.527 410.191C301.527 403.804 296.349 398.626 289.962 398.626C289.743 398.626 289.525 398.626 289.301 398.646C288.398 392.079 283.406 386.821 276.895 385.58C270.385 384.338 263.808 387.39 260.552 393.164C256.261 393.677 253.029 397.317 253.028 401.64" stroke="black" stroke-width="1.45086"/>
<path d="M195.786 406.689C195.785 404.362 194.445 402.243 192.343 401.245C190.241 400.247 187.752 400.549 185.949 402.02C183.425 400.55 180.308 400.543 177.776 401.999C175.245 403.455 173.685 406.154 173.686 409.074" stroke="black" stroke-width="1.45086"/>
<path d="M100.87 347.849L100.87 210.037H127.675C135.888 210.037 142.545 216.695 142.545 224.907C142.545 231.389 147.8 236.644 154.282 236.644H173.686" stroke="black" stroke-width="1.45086"/>
<path d="M145.321 266.04H176.964H145.321Z" fill="#E9EAEE"/>
<path d="M145.321 266.04H176.964" stroke="black" stroke-width="1.45086"/>
<path d="M145.321 300.697H176.964H145.321Z" fill="#E9EAEE"/>
<path d="M145.321 300.697H176.964" stroke="black" stroke-width="1.45086"/>
<path d="M145.321 335.353H176.964H145.321Z" fill="#E9EAEE"/>
<path d="M145.321 335.353H176.964" stroke="black" stroke-width="1.45086"/>
<path d="M145.321 243.438V364.485V243.438Z" fill="#E9EAEE"/>
<path d="M145.321 243.438V364.485" stroke="black" stroke-width="1.45086"/>
<path d="M115.939 243.438H128.496V255.995H115.939V243.438Z" fill="#465173" stroke="black" stroke-width="1.45086"/>
<path d="M122.217 223.348V370.01V223.348Z" fill="#465173"/>
<path d="M122.217 223.348V370.01" stroke="black" stroke-width="1.45086"/>
<path d="M84.2959 408.671V358.012C84.2977 352.85 88.482 348.665 93.644 348.663H102.824C105.305 348.661 107.686 349.644 109.441 351.398C111.197 353.151 112.184 355.53 112.185 358.012V395.569" stroke="black" stroke-width="1.45086"/>
<path d="M343.718 370.01V270.31H365.692C370.752 270.31 374.855 274.409 374.858 279.469V302.071C374.858 307.134 378.962 311.238 384.025 311.238C386.457 311.238 388.79 312.204 390.509 313.925C392.228 315.645 393.193 317.979 393.191 320.411V378.548" stroke="black" stroke-width="1.45086"/>
<path d="M343.718 291.329H323.878H343.718Z" fill="#E9EAEE"/>
<path d="M343.718 291.329H323.878" stroke="black" stroke-width="1.45086"/>
<path d="M343.718 311.244H323.878H343.718Z" fill="#E9EAEE"/>
<path d="M343.718 311.244H323.878" stroke="black" stroke-width="1.45086"/>
<path d="M343.718 331.16H323.878H343.718Z" fill="#E9EAEE"/>
<path d="M343.718 331.16H323.878" stroke="black" stroke-width="1.45086"/>
<path d="M375.109 375.535V324.052C375.109 322.249 376.571 320.788 378.374 320.788C380.177 320.788 381.639 322.249 381.639 324.052V384.325" stroke="black" stroke-width="1.45086"/>
<ellipse cx="201.45" cy="142.859" rx="2.88804" ry="2.88805" fill="#465173" stroke="black" stroke-width="1.45086"/>
<ellipse cx="340.578" cy="221.464" rx="2.88803" ry="2.88804" fill="#465173" stroke="black" stroke-width="1.45086"/>
<path d="M305.734 133.693V139.845V133.693Z" fill="#465173"/>
<path d="M305.734 133.693V139.845" stroke="black" stroke-width="1.45086"/>
<path d="M302.657 136.769H308.81H302.657Z" fill="#465173"/>
<path d="M302.657 136.769H308.81" stroke="black" stroke-width="1.45086"/>
<path d="M188.956 201.75V207.903V201.75Z" fill="#465173"/>
<path d="M188.956 201.75V207.903" stroke="black" stroke-width="1.45086"/>
<path d="M185.88 204.826H192.033H185.88Z" fill="#465173"/>
<path d="M185.88 204.826H192.033" stroke="black" stroke-width="1.45086"/>
<path d="M381.576 207.024V213.177V207.024Z" fill="#465173"/>
<path d="M381.576 207.024V213.177" stroke="black" stroke-width="1.45086"/>
<path d="M378.5 210.1H384.652H378.5Z" fill="#465173"/>
<path d="M378.5 210.1H384.652" stroke="black" stroke-width="1.45086"/>
<path d="M128.433 142.733V148.886V142.733Z" fill="#465173"/>
<path d="M128.433 142.733V148.886" stroke="black" stroke-width="1.45086"/>
<path d="M125.356 145.81H131.509H125.356Z" fill="#465173"/>
<path d="M125.356 145.81H131.509" stroke="black" stroke-width="1.45086"/>
<circle cx="100.355" cy="125.494" r="61.5125" fill="#E7EFFC" stroke="black" stroke-width="0.77001"/>
<mask id="mask0_682_92524" style="mask-type:alpha" maskUnits="userSpaceOnUse" x="39" y="64" width="123" height="123">
<circle cx="100.355" cy="125.494" r="61.1275" fill="#BABDDB"/>
</mask>
<g mask="url(#mask0_682_92524)">
<path d="M208.76 144.054C193.798 125.833 178.208 108.131 162.019 91.0123C139.978 67.693 116.851 45.4439 92.7015 24.328C91.1795 22.995 89.6573 21.669 88.1306 20.3498C87.651 19.9349 87.1711 19.5216 86.6906 19.109L85.8421 18.3807C86.5973 18.3015 87.3368 18.2232 88.092 18.1602C100.725 29.0485 113.091 40.2356 125.173 51.7224C148.41 73.8294 170.609 97.0381 191.643 121.239C197.527 128.02 203.316 134.88 209.027 141.804C208.949 142.559 208.854 143.314 208.76 144.054Z" fill="#F8F9F9"/>
<path d="M117.354 19.4033C120.233 22.8652 123.096 26.3264 125.944 29.8198C143.596 51.392 160.697 73.4206 177.216 95.8741C188.103 110.665 198.738 125.644 209.137 140.813C209.216 139.963 209.295 139.113 209.373 138.247L207.825 135.998C207.177 135.056 206.527 134.116 205.876 133.176C203.847 130.243 201.807 127.316 199.761 124.401C183.855 101.758 167.383 79.5255 150.345 57.7174C140.387 44.956 130.223 32.3375 119.887 19.875C119.053 19.7183 118.22 19.5608 117.37 19.4033H117.354Z" fill="#F8F9F9"/>
<path d="M187.065 68.6995C191.454 73.5305 195.718 78.4553 199.871 83.4907C198.943 81.4132 197.936 79.3834 196.882 77.385C184.831 63.2399 171.82 49.9438 157.928 37.5919C155.112 35.0903 152.265 32.6203 149.37 30.1971C148.438 29.713 147.496 29.2421 146.548 28.7834C146.289 28.6582 146.03 28.5345 145.771 28.4115C145.467 28.2671 145.162 28.1242 144.857 27.9828C144.328 27.737 143.797 27.4942 143.266 27.2545C158.872 39.9367 173.519 53.8145 187.049 68.6995H187.065Z" fill="#F8F9F9"/>
<path d="M77.1421 19.7029C81.4685 24.6907 85.7794 29.6785 90.0585 34.6977C101.606 48.2451 112.965 61.9661 123.962 75.9698C134.912 89.9267 145.5 104.182 155.521 118.832C165.449 133.339 174.809 148.223 183.368 163.565C187.348 170.693 191.155 177.9 194.758 185.216C195.088 184.649 195.419 184.068 195.733 183.485C191.36 174.674 186.703 166.004 181.81 157.476C172.984 142.087 163.372 127.155 153.208 112.6C143.108 98.1244 132.457 84.0262 121.492 70.2107C110.369 56.207 98.8844 42.4706 87.2424 28.8917C86.3566 27.8584 85.4709 26.8265 84.5846 25.7963L82.7081 23.6181L81.4733 22.1891C80.6546 21.2433 79.8351 20.2991 79.0143 19.3564C78.6627 19.4179 78.311 19.4793 77.9623 19.5439C77.6867 19.5946 77.4128 19.6476 77.1421 19.7029Z" fill="#F8F9F9"/>
<path d="M173.503 165.154C161.861 150.285 149.59 135.919 136.736 122.072H136.721C123.804 108.178 110.322 94.82 96.3041 82.0432C82.2864 69.2665 67.7339 57.0721 52.678 45.523C47.9898 41.9351 43.27 38.4109 38.503 34.949C38.9908 34.6347 39.4942 34.3197 39.9976 34.0209C42.7822 36.0346 45.5512 38.0959 48.3043 40.1572C63.4547 51.5649 78.133 63.5864 92.2765 76.2057C106.436 88.825 120.06 102.042 133.102 115.81C146.207 129.625 158.715 144.006 170.608 158.876C178.302 168.49 185.727 178.324 192.87 188.347L192.845 188.388C192.538 188.878 192.232 189.367 191.926 189.841C185.979 181.471 179.843 173.242 173.503 165.154Z" fill="#F8F9F9"/>
<path d="M-5.26475 87.1094C2.25541 91.3742 9.61809 95.9371 16.7922 100.752C29.803 109.484 42.2316 119.051 54.1725 129.2C66.2079 139.412 77.7554 150.19 88.9412 161.314C100.143 172.455 110.998 183.925 121.665 195.585C131.435 206.253 141.032 217.063 150.613 227.904C151.399 227.479 152.186 227.055 152.972 226.614C152.768 226.197 152.56 225.78 152.351 225.363C152.142 224.946 151.934 224.528 151.729 224.112C143.863 208.409 135.336 193.051 126.274 178.025C117.228 162.982 107.647 148.255 97.7043 133.779C87.6985 119.209 77.2991 104.89 66.6797 90.7603C56.1391 76.7566 45.3781 62.9096 34.4912 49.1732C32.5719 46.75 30.6526 44.3268 28.7175 41.9197C28.3121 42.2347 27.9067 42.5651 27.5013 42.8955L27.4431 42.9423C30.7154 47.0489 33.9878 51.1715 37.2444 55.2942C48.2256 69.2035 59.0653 83.2387 69.6532 97.4476C80.0996 111.499 90.3099 125.722 100.127 140.23C109.96 154.769 119.415 169.575 128.335 184.697C136.154 197.961 143.564 211.493 150.455 225.261C139.961 213.397 129.437 201.58 118.691 189.936C107.93 178.277 96.949 166.822 85.6059 155.729C74.3257 144.715 62.6838 134.062 50.5227 124.024C38.4715 114.064 25.9169 104.686 12.7961 96.173C7.10093 92.4751 1.28 88.951 -4.63542 85.5989C-4.8557 86.1029 -5.06022 86.6061 -5.2805 87.1255L-5.26475 87.1094Z" fill="#F8F9F9"/>
<path d="M0.361826 180.47L1.87823 182.006C16.5095 196.86 30.8417 212.044 44.8279 227.511C43.2704 226.661 41.7285 225.78 40.2025 224.852C35.3727 219.549 30.4957 214.262 25.5714 209.023C17.0601 199.928 8.42298 190.959 -0.324356 182.1C-0.784116 181.257 -1.22986 180.405 -1.66427 179.545C-2.0328 178.814 -2.39327 178.076 -2.74702 177.333C-1.76259 178.318 -0.778162 179.316 0.206268 180.314L0.361826 180.47Z" fill="#F8F9F9"/>
<path d="M59.3804 191.761C71.7934 207.873 83.687 224.379 95.4076 240.979C95.7723 240.988 96.1368 240.996 96.5015 241.002C96.8134 241.008 97.1253 241.011 97.4371 241.011C92.6074 234.166 87.7617 227.353 82.8531 220.572C66.3183 197.709 49.2014 175.224 30.5585 154.013C17.2174 138.846 3.08966 124.338 -12.045 110.963C-12.155 111.609 -12.2495 112.238 -12.344 112.883C-6.79037 117.808 -1.37831 122.906 3.92352 128.114C23.9824 147.892 42.2005 169.449 59.3804 191.745V191.761Z" fill="#F8F9F9"/>
<path d="M-11.5524 128.849C-12.1953 127.824 -12.8381 126.799 -13.4771 125.77C-13.4456 124.8 -13.3983 123.845 -13.3513 122.89C-9.6463 128.822 -5.9373 134.75 -2.2285 140.678C1.4805 146.606 5.18949 152.534 8.89446 158.466C21.8422 179.19 34.806 199.896 47.7537 220.603C50.2237 224.568 52.7095 228.517 55.1794 232.483C54.5186 232.2 53.8737 231.916 53.2129 231.633C53.1814 231.617 53.1458 231.601 53.1105 231.586L53.0083 231.538C52.9334 231.508 52.8583 231.475 52.7834 231.441C52.701 231.405 52.6187 231.367 52.5363 231.334C44.7801 218.935 37.0243 206.52 29.2681 194.122C16.3203 173.414 3.3566 152.692 -9.59118 131.986C-10.2422 130.937 -10.8973 129.893 -11.5524 128.849Z" fill="#F8F9F9"/>
<path d="M-13.4771 125.785V125.77V125.785Z" fill="#F8F9F9"/>
</g>
<mask id="mask1_682_92524" style="mask-type:alpha" maskUnits="userSpaceOnUse" x="0" y="41" width="184" height="157">
<path d="M102.04 186.622C87.1187 186.381 78.2143 183.012 75.3263 181.327L72.4384 189.51L9.38571 197.211L0 93.2458L68.3472 41.2634L183.382 101.669L145.358 191.675L126.587 180.846C116.96 185.466 106.211 186.622 102.04 186.622Z" fill="#D9D9D9"/>
</mask>
<g mask="url(#mask1_682_92524)">
<path d="M100.528 126.931C85.1263 128.375 79.5109 124.444 75.2593 122.84C73.9116 129 69.7241 135.996 67.7988 138.723C73.7672 140.841 86.6505 140.087 92.3461 139.445C82.3346 156.195 79.19 176.266 78.8692 186.855C86.3296 184.208 99.8065 185.652 104.86 188.058C108.903 189.984 118.417 188.54 122.669 187.577C118.048 185.074 116.653 168.645 116.653 158.698C119.541 157.013 126.76 155.81 131.574 154.607C128.493 143.248 117.134 129.498 111.839 124.043L100.528 126.931Z" fill="#465173"/>
<path d="M116.653 158.698C119.541 157.013 126.76 155.81 131.574 154.607C128.493 143.248 117.134 129.498 111.839 124.043L100.528 126.931C85.1263 128.375 79.5109 124.444 75.2593 122.84C73.9116 129 69.7241 135.996 67.7988 138.723C73.7672 140.841 86.6505 140.087 92.3461 139.445M116.653 158.698C116.653 168.645 118.048 185.074 122.669 187.577C118.417 188.54 108.903 189.984 104.86 188.058C99.8065 185.652 86.3296 184.208 78.8692 186.855C79.19 176.266 82.3346 156.195 92.3461 139.445M116.653 158.698L111.839 161.104C111.839 152.207 111.839 144.265 110.877 137.279M92.3461 139.445C93.1207 138.097 94.9013 136.163 95.7818 135.12" stroke="black" stroke-width="0.914505" stroke-linecap="round" stroke-linejoin="round"/>
<path d="M81.9981 185.892C79.4952 178.576 82.8806 164.794 84.4047 157.254C81.9018 164.762 79.1904 179.074 78.6289 186.855L81.9981 185.892Z" fill="black" stroke="black" stroke-width="0.914505" stroke-linecap="round" stroke-linejoin="round"/>
<path d="M67.3175 138.482C66.3549 138.29 66.236 135.033 66.6371 133.188C67.5997 133.429 69.2843 133.669 70.4875 133.91C69.7656 135.595 68.2801 138.675 67.3175 138.482Z" fill="black" stroke="black" stroke-width="0.914505" stroke-linecap="round" stroke-linejoin="round"/>
<path d="M131.816 154.889C126.773 158.019 118.82 164.95 112.082 161.597C118.331 159.137 131.027 154.352 131.816 154.889Z" fill="black" stroke="black" stroke-width="0.914505" stroke-linecap="round" stroke-linejoin="round"/>
<path d="M62.2634 114.657C62.841 117.93 70.6866 121.315 75.0185 122.84C75.0185 128.038 71.6491 131.904 69.9645 133.428C67.0766 133.428 54.3221 127.653 53.1186 120.914C52.4416 117.124 53.2788 94.1208 54.5622 83.8527C53.3572 82.9154 51.5007 74.474 57.5172 76.1587C57.5172 71.1048 58.2392 67.4949 59.4425 68.4575C60.2528 69.1057 60.7727 73.5167 60.6458 76.2305C61.2088 76.6211 61.9937 77.2989 63.0524 78.3246C64.5426 79.7686 63.0524 80.2499 62.2634 82.6493C60.8864 84.5817 61.5414 110.566 62.2634 114.657Z" fill="#E29B7B" stroke="black" stroke-width="0.914505" stroke-linejoin="round"/>
<path d="M79.8614 134.257L79.8614 134.257L79.8648 134.262C83.8593 139.032 89.4473 146.699 93.2302 154.19C95.1225 157.936 96.5507 161.615 97.1119 164.85C97.6619 168.021 97.3672 170.689 95.9569 172.596L76.2376 176.936C76.7369 173.795 76.6616 169.612 74.1386 164.678C71.4374 159.395 65.9508 153.293 55.453 146.688C55.0498 146.359 54.6178 145.93 54.2644 145.455C53.9021 144.968 53.6421 144.459 53.557 143.978C53.4749 143.515 53.5532 143.074 53.8792 142.665C54.2181 142.24 54.8585 141.807 55.9853 141.459C59.0078 140.524 60.1932 139.367 60.9708 138.328C61.1086 138.144 61.2287 137.973 61.3399 137.815C61.8507 137.088 62.174 136.628 63.1508 136.396C64.4572 136.085 66.0921 136.193 67.6592 136.348C67.8705 136.369 68.081 136.391 68.289 136.412C68.837 136.469 69.3667 136.524 69.8427 136.555C70.4914 136.599 71.1039 136.605 71.5747 136.493C72.0246 136.386 72.728 136.075 73.491 135.733C73.559 135.703 73.6278 135.672 73.6973 135.641C74.4323 135.312 75.25 134.945 76.0628 134.634C76.9571 134.291 77.812 134.029 78.5151 133.953C79.2399 133.874 79.6556 134.006 79.8614 134.257Z" fill="#E74F4F" stroke="black" stroke-width="0.914505"/>
<path d="M64.7076 146.476L77.6381 142.562" stroke="black" stroke-width="0.817296" stroke-linecap="round" stroke-linejoin="round"/>
<path d="M67.6412 149.979L80.5717 146.065" stroke="black" stroke-width="0.817296" stroke-linecap="round" stroke-linejoin="round"/>
<path d="M69.1585 171.769L91.3273 166.497C91.404 168.1 92.1453 169.499 93.0446 170.601C93.7236 171.434 94.5072 172.117 95.206 172.616L76.007 177.181C72.8868 177.595 71.1654 176.682 70.231 175.48C69.3536 174.351 69.1043 172.887 69.1585 171.769Z" fill="#E74F4F" stroke="black" stroke-width="0.914505"/>
<path d="M131.467 182.643C122.803 186.253 101.252 167.713 98.6708 165.552C91.6252 166.028 85.9178 161.345 84.9533 159.661C84.0498 158.083 85.4348 157.764 86.4941 158.231C85.6016 157.567 84.6179 156.53 84.9533 155.569C85.3806 154.346 86.1565 154.557 86.9532 154.977C85.0877 152.162 87.119 152.025 88.3224 152.681C90.9697 154.125 91.9323 154.557 93.3763 154.557C92.8949 152.396 92.2036 150.952 94.3389 151.672C95.935 152.211 99.9072 156.41 100.355 159.04C106.853 162.134 115.035 167.609 117.442 168.572C116.96 167.609 114.554 160.623 114.554 160.623C114.554 160.623 120.57 156.158 127.55 156.158C129.475 158.806 137.243 179.515 131.467 182.643Z" fill="#E29B7B"/>
<path d="M117.442 168.572C115.035 167.609 106.853 162.134 100.355 159.04C99.9072 156.41 95.935 152.211 94.3389 151.672C92.2036 150.952 92.8949 152.396 93.3763 154.557C91.9323 154.557 90.9697 154.125 88.3224 152.681C87.119 152.025 85.0877 152.162 86.9532 154.977M117.442 168.572C116.96 167.609 114.554 160.623 114.554 160.623C114.554 160.623 120.57 156.158 127.55 156.158C129.475 158.806 137.243 179.515 131.467 182.643C122.803 186.253 101.252 167.713 98.6708 165.552C91.6252 166.028 85.9178 161.345 84.9533 159.661C83.8507 157.735 86.1564 157.685 87.119 158.649M117.442 168.572L124.902 172.422M86.9532 154.977C86.1565 154.557 85.3806 154.346 84.9533 155.569C84.5348 156.767 86.1699 158.086 87.119 158.649M86.9532 154.977C88.563 156.483 91.3365 157.565 93.3763 157.686M87.119 158.649C88.0681 159.212 90.8895 160.623 92.4137 160.623" stroke="black" stroke-width="0.914505" stroke-linecap="round" stroke-linejoin="round"/>
<path d="M58.0938 78.932C57.8041 79.7933 55.8646 79.3518 54.5614 78.8366C53.2582 78.3214 53.1612 77.7006 53.3745 77.0663C53.5878 76.4321 54.0306 76.0247 55.3338 76.5399C56.637 77.0551 58.3834 78.0708 58.0938 78.932Z" fill="#E29B7B" stroke="black" stroke-width="0.914505" stroke-linecap="round" stroke-linejoin="round"/>
<path d="M57.7075 81.0268C57.4179 81.888 55.4783 81.4465 54.1752 80.9313C52.872 80.4161 52.775 79.7953 52.9883 79.1611C53.2016 78.5268 53.6444 78.1194 54.9476 78.6346C56.2508 79.1498 57.9972 80.1655 57.7075 81.0268Z" fill="#E29B7B" stroke="black" stroke-width="0.914505" stroke-linecap="round" stroke-linejoin="round"/>
<path d="M87.0205 112.294V93.7636C87.0205 93.7636 88.9458 84.1316 100.738 83.8909C112.53 83.6503 113.734 93.2766 113.734 93.2766C113.734 97.8861 112.274 100.475 110.467 101.878C112.458 100.68 115.472 99.7333 116.14 102.909C116.91 106.567 112.931 107.962 110.846 108.203C109.306 116.482 110.846 122.562 111.808 124.568C109.883 128.419 103.145 127.777 100.016 126.975V120.958C87.1168 121.343 87.0205 116.626 87.0205 112.294Z" fill="#E29B7B" stroke="black" stroke-width="0.914505" stroke-linejoin="round"/>
<path d="M100.257 120.958C101.943 120.881 104.713 120.38 105.46 118.992C105.492 118.924 105.522 118.857 105.551 118.792C105.526 118.861 105.495 118.927 105.46 118.992C104.292 121.54 101.757 126.359 100.257 126.734V120.958Z" fill="black" stroke="black" stroke-width="0.914505" stroke-linecap="round" stroke-linejoin="round"/>
<path d="M109.179 102.903V96.8868C107.431 96.0206 104.093 96.1672 99.2945 95.9241C99.0083 95.9096 98.7787 87.2674 98.0912 87.2604L96.7914 93.9449C96.6256 95.0926 96.4896 95.9241 96.4066 95.9241C91.578 95.9241 87.0209 95.8439 85.3362 96.8868C82.6891 94.2394 87.9835 78.5965 100.979 82.9287C107.167 81.1638 118.788 84.1317 115.178 100.978C112.531 99.7745 110.061 102.021 109.179 102.903Z" fill="black"/>
<path d="M96.4066 95.9241C91.578 95.9241 87.0209 95.8439 85.3362 96.8868C82.6891 94.2394 87.9835 78.5965 100.979 82.9287C107.167 81.1638 118.788 84.1317 115.178 100.978C112.531 99.7745 110.061 102.021 109.179 102.903V96.8868C107.431 96.0206 104.093 96.1672 99.2945 95.9241C99.0083 95.9096 98.7787 87.2674 98.0912 87.2604M96.4066 95.9241C96.6748 95.9241 97.4945 87.2543 98.0912 87.2604M96.4066 95.9241L98.0912 87.2604" stroke="black" stroke-width="0.914505" stroke-linecap="round" stroke-linejoin="round"/>
<path d="M97.6728 106.979C97.2854 105.707 95.9407 104.99 94.6693 105.378C93.3979 105.765 92.6812 107.11 93.0686 108.381C93.2981 109.135 93.8635 109.693 94.5507 109.943" stroke="black" stroke-width="0.721978" stroke-linecap="round" stroke-linejoin="round"/>
<circle cx="99.3919" cy="105.524" r="0.721978" fill="black"/>
<circle cx="91.6907" cy="105.038" r="0.721978" fill="black"/>
<path d="M99.1514 101.193C100.355 100.711 102.521 101.481 102.521 103.599" stroke="black" stroke-width="0.721978" stroke-linecap="round" stroke-linejoin="round"/>
<path d="M92.1722 101.003C91.4502 100.763 89.91 101.292 89.5249 102.447" stroke="black" stroke-width="0.721978" stroke-linecap="round" stroke-linejoin="round"/>
<path d="M98.1885 113.22C97.7874 113.782 96.9852 114.905 95.3006 114.905C93.9529 114.905 93.1346 113.782 92.894 113.22" stroke="black" stroke-width="0.721978" stroke-linecap="round" stroke-linejoin="round"/>
<path d="M100.836 137.527C97.2378 137.722 99.6564 130.405 99.9562 125.521L111.425 124.05C111.2 131.132 105.333 137.282 100.836 137.527Z" fill="#E29B7B" stroke="black" stroke-width="0.914505" stroke-linecap="round" stroke-linejoin="round"/>
<path d="M110.943 124.772V123.568L102.761 124.531L99.873 126.938L110.943 124.772Z" fill="#E29B7B"/>
<path d="M99.873 127.9C99.873 127.9 102.984 125.136 103.242 123.809C103.5 122.482 99.873 125.512 99.873 125.512V127.9Z" fill="black"/>
<circle cx="3.12857" cy="3.12857" r="3.12857" transform="matrix(-1 0 0 1 103.243 100.946)" stroke="black" stroke-width="0.721978" stroke-linecap="round" stroke-linejoin="round"/>
<path d="M88.1706 104.075C88.1706 105.803 89.5713 107.204 91.2992 107.204C91.82 107.204 92.3111 107.076 92.7431 106.851C92.7431 106.851 92.7431 106.346 93.2244 105.76C93.6754 105.211 94.2768 105.038 94.2768 105.038C94.3748 104.734 94.4277 104.411 94.4277 104.075C94.4277 102.347 93.027 100.946 91.2992 100.946C89.5713 100.946 88.1706 102.347 88.1706 104.075Z" stroke="black" stroke-width="0.721978" stroke-linecap="round" stroke-linejoin="round"/>
<path d="M109.5 101.668C108.056 102.471 104.879 104.075 103.724 104.075" stroke="black" stroke-width="0.721978" stroke-linecap="round" stroke-linejoin="round"/>
</g>
<circle cx="253.748" cy="84.9673" r="61.5125" fill="#E7EFFC" stroke="black" stroke-width="0.77001"/>
<mask id="mask2_682_92524" style="mask-type:alpha" maskUnits="userSpaceOnUse" x="192" y="23" width="123" height="124">
<circle cx="253.748" cy="84.9673" r="61.1275" fill="#BABDDB"/>
</mask>
<g mask="url(#mask2_682_92524)">
<path d="M362.153 103.527C347.191 85.3062 331.601 67.6046 315.412 50.4855C293.371 27.1661 270.244 4.91704 246.095 -16.1988C244.573 -17.5318 243.05 -18.8579 241.524 -20.1771C241.044 -20.5919 240.564 -21.0053 240.084 -21.4179L239.235 -22.1462C239.99 -22.2253 240.73 -22.3037 241.485 -22.3667C254.118 -11.4784 266.484 -0.291243 278.566 11.1956C301.803 33.3025 324.002 56.5112 345.036 80.7118C350.92 87.4928 356.71 94.3536 362.42 101.277C362.342 102.032 362.247 102.787 362.153 103.527Z" fill="#F8F9F9"/>
<path d="M270.747 -21.1236C273.626 -17.6617 276.49 -14.2005 279.337 -10.707C296.989 10.8652 314.09 32.8938 330.609 55.3472C341.496 70.1377 352.131 85.1172 362.53 100.286C362.609 99.4359 362.688 98.5862 362.766 97.7203L361.218 95.4707C360.57 94.5296 359.92 93.5892 359.27 92.6488C357.24 89.7162 355.2 86.789 353.154 83.8741C337.248 61.2316 320.776 38.9987 303.738 17.1906C293.78 4.42917 283.616 -8.18933 273.28 -20.6519C272.446 -20.8086 271.613 -20.9661 270.763 -21.1236H270.747Z" fill="#F8F9F9"/>
<path d="M340.458 28.1726C344.847 33.0036 349.111 37.9284 353.264 42.9638C352.336 40.8864 351.329 38.8565 350.275 36.8582C338.224 22.7131 325.213 9.41695 311.321 -2.93495C308.505 -5.43652 305.658 -7.9066 302.763 -10.3298C301.831 -10.8138 300.889 -11.2848 299.941 -11.7435C299.682 -11.8687 299.423 -11.9924 299.164 -12.1153C298.86 -12.2598 298.556 -12.4027 298.251 -12.544C297.721 -12.7899 297.19 -13.0327 296.659 -13.2724C312.265 -0.590111 326.912 13.2876 340.442 28.1726H340.458Z" fill="#F8F9F9"/>
<path d="M230.535 -20.824C234.862 -15.8362 239.172 -10.8484 243.452 -5.82912C254.999 7.71824 266.358 21.4392 277.355 35.443C288.305 49.3999 298.893 63.6556 308.914 78.3047C318.842 92.8117 328.202 107.697 336.761 123.038C340.741 130.166 344.548 137.373 348.151 144.689C348.481 144.122 348.812 143.541 349.126 142.958C344.753 134.147 340.096 125.477 335.203 116.949C326.377 101.56 316.765 86.6276 306.602 72.073C296.501 57.5976 285.85 43.4993 274.885 29.6838C263.762 15.6801 252.277 1.94373 240.635 -11.6351C239.75 -12.6685 238.864 -13.7003 237.978 -14.7306L236.101 -16.9087L234.866 -18.3378C234.048 -19.2835 233.228 -20.2278 232.407 -21.1705C232.056 -21.109 231.704 -21.0475 231.355 -20.983C231.08 -20.9323 230.806 -20.8793 230.535 -20.824Z" fill="#F8F9F9"/>
<path d="M326.896 124.627C315.254 109.758 302.983 95.3924 290.129 81.5454H290.114C277.197 67.6515 263.715 54.2931 249.697 41.5164C235.679 28.7396 221.127 16.5452 206.071 4.99617C201.383 1.40823 196.663 -2.11595 191.896 -5.57789C192.384 -5.89212 192.887 -6.20712 193.391 -6.50599C196.175 -4.49229 198.944 -2.43095 201.697 -0.36961C216.848 11.0381 231.526 23.0596 245.67 35.6789C259.829 48.2981 273.453 61.5151 286.495 75.283C299.6 89.0977 312.108 103.479 324.002 118.349C331.695 127.963 339.12 137.797 346.263 147.82L346.238 147.862C345.932 148.351 345.625 148.84 345.319 149.314C339.372 140.944 333.236 132.715 326.896 124.627Z" fill="#F8F9F9"/>
<path d="M148.128 46.5825C155.648 50.8473 163.011 55.4102 170.185 60.2251C183.196 68.9576 195.625 78.5244 207.566 88.6729C219.601 98.885 231.149 109.663 242.334 120.788C253.536 131.928 264.391 143.399 275.058 155.058C284.828 165.726 294.425 176.536 304.006 187.377C304.792 186.953 305.579 186.528 306.365 186.087C306.161 185.67 305.953 185.253 305.744 184.836C305.535 184.419 305.327 184.002 305.123 183.585C297.256 167.882 288.729 152.524 279.667 137.498C270.621 122.456 261.04 107.728 251.097 93.2519C241.092 78.6819 230.692 64.3632 220.073 50.2335C209.532 36.2297 198.771 22.3827 187.884 8.64635C185.965 6.22314 184.046 3.79993 182.111 1.39286C181.705 1.70786 181.3 2.03823 180.894 2.3686L180.836 2.41546C184.108 6.52201 187.381 10.6447 190.637 14.7674C201.619 28.6766 212.458 42.7118 223.046 56.9207C233.493 70.9721 243.703 85.1955 253.52 99.7033C263.353 114.243 272.808 129.048 281.728 144.17C289.547 157.434 296.957 170.966 303.848 184.734C293.355 172.87 282.83 161.053 272.084 149.409C261.323 137.75 250.342 126.295 238.999 115.202C227.719 104.188 216.077 93.5354 203.916 83.4968C191.865 73.5367 179.31 64.1588 166.189 55.6461C160.494 51.9483 154.673 48.4241 148.758 45.072C148.537 45.576 148.333 46.0793 148.113 46.5986L148.128 46.5825Z" fill="#F8F9F9"/>
<path d="M153.755 139.944L155.271 141.479C169.903 156.333 184.235 171.517 198.221 186.984C196.663 186.134 195.122 185.253 193.596 184.325C188.766 179.022 183.889 173.736 178.964 168.496C170.453 159.401 161.816 150.432 153.069 141.573C152.609 140.73 152.163 139.878 151.729 139.018C151.36 138.287 151 137.55 150.646 136.806C151.63 137.791 152.615 138.789 153.599 139.787L153.755 139.944Z" fill="#F8F9F9"/>
<path d="M212.773 151.234C225.186 167.346 237.08 183.852 248.801 200.452C249.165 200.461 249.53 200.469 249.895 200.475C250.206 200.481 250.518 200.484 250.83 200.484C246 193.639 241.155 186.826 236.246 180.045C219.711 157.182 202.594 134.697 183.952 113.487C170.61 98.3188 156.483 83.8111 141.348 70.4366C141.238 71.0819 141.144 71.7112 141.049 72.3558C146.603 77.2813 152.015 82.379 157.317 87.5872C177.375 107.365 195.594 128.922 212.773 151.218V151.234Z" fill="#F8F9F9"/>
<path d="M141.841 88.3217C141.198 87.2968 140.555 86.2719 139.916 85.2432C139.948 84.2736 139.995 83.3186 140.042 82.3636C143.747 88.2956 147.456 94.223 151.165 100.151C154.874 106.079 158.583 112.008 162.288 117.94C175.235 138.663 188.199 159.369 201.147 180.076C203.617 184.041 206.103 187.991 208.572 191.956C207.912 191.673 207.267 191.389 206.606 191.106C206.574 191.09 206.539 191.074 206.504 191.059L206.401 191.011C206.326 190.981 206.251 190.948 206.177 190.915C206.094 190.878 206.012 190.84 205.929 190.807C198.173 178.408 190.417 165.993 182.661 153.595C169.713 132.888 156.75 112.165 143.802 91.4587C143.151 90.41 142.496 89.3659 141.841 88.3217Z" fill="#F8F9F9"/>
<path d="M139.916 85.2585V85.2432V85.2585Z" fill="#F8F9F9"/>
</g>
<mask id="mask3_682_92524" style="mask-type:alpha" maskUnits="userSpaceOnUse" x="153" y="0" width="184" height="157">
<path d="M255.432 146.095C240.511 145.854 231.607 142.485 228.719 140.8L225.831 148.983L162.778 156.684L153.393 52.719L221.74 0.736572L336.775 61.142L298.751 151.149L279.979 140.319C270.353 144.94 259.604 146.095 255.432 146.095Z" fill="#D9D9D9"/>
</mask>
<g mask="url(#mask3_682_92524)">
<path d="M253.44 87.5435C238.038 88.9874 232.423 85.0567 228.171 83.4523C226.823 89.6131 222.636 96.6083 220.71 99.3358C226.679 101.454 239.562 100.7 245.258 100.058C235.246 116.808 232.102 136.879 231.781 147.468C239.241 144.82 252.718 146.264 257.772 148.671C261.815 150.596 271.329 149.152 275.581 148.19C270.96 145.687 269.564 129.258 269.564 119.31C272.452 117.626 279.672 116.423 284.485 115.219C281.405 103.86 270.046 90.1105 264.751 84.6556L253.44 87.5435Z" fill="#465173"/>
<path d="M269.564 119.31C272.452 117.626 279.672 116.423 284.485 115.219C281.405 103.86 270.046 90.1105 264.751 84.6556L253.44 87.5435C238.038 88.9874 232.423 85.0567 228.171 83.4523C226.823 89.6131 222.636 96.6083 220.71 99.3358C226.679 101.454 239.562 100.7 245.258 100.058M269.564 119.31C269.564 129.258 270.96 145.687 275.581 148.19C271.329 149.152 261.815 150.596 257.772 148.671C252.718 146.264 239.241 144.82 231.781 147.468C232.102 136.879 235.246 116.808 245.258 100.058M269.564 119.31L264.751 121.717C264.751 115.219 263.788 108.488 263.788 97.8918M245.258 100.058C246.032 98.7101 247.987 96.2874 248.868 95.2446" stroke="black" stroke-width="0.914505" stroke-linecap="round" stroke-linejoin="round"/>
<path d="M220.229 99.0952C219.266 98.9026 219.148 95.6457 219.549 93.8007C220.511 94.0413 222.196 94.282 223.399 94.5226C222.677 96.2073 221.192 99.2877 220.229 99.0952Z" fill="black" stroke="black" stroke-width="0.914505" stroke-linecap="round" stroke-linejoin="round"/>
<path d="M284.726 115.502C279.683 118.632 271.73 125.562 264.992 122.21C271.241 119.75 283.936 114.965 284.726 115.502Z" fill="black" stroke="black" stroke-width="0.914505" stroke-linecap="round" stroke-linejoin="round"/>
<path d="M274.24 166.727C275.469 162.962 272.605 138.602 267.705 121.484C272.037 118.114 277.245 117.485 279.797 118.114C282.822 133.573 280.395 151.491 280.756 166.727C281.921 170.514 282.382 177.462 280.756 179.001C279.738 179.964 279.498 179.001 279.498 178.279C279.198 179.233 279.279 180.028 278.426 180.028C277.572 180.028 277.284 178.508 277.261 178.012C277.261 179.468 276.726 180.028 275.804 180.028C274.203 179.964 275.222 175.973 274.24 172.411C273.693 173.459 272.157 175.224 270.381 173.909C269.871 173.532 273.817 169.721 274.24 166.727Z" fill="#F5B896"/>
<path d="M277.261 178.012C277.261 179.468 276.726 180.028 275.804 180.028C274.203 179.964 275.222 175.973 274.24 172.411C273.693 173.459 272.157 175.224 270.381 173.909C269.871 173.532 273.817 169.721 274.24 166.727C275.469 162.962 272.605 138.602 267.705 121.484C272.037 118.114 277.245 117.485 279.797 118.114C282.822 133.573 280.395 151.491 280.756 166.727C281.921 170.514 282.382 177.462 280.756 179.001C279.738 179.964 279.498 179.001 279.498 178.279M277.261 178.012C277.284 178.508 277.572 180.028 278.426 180.028C279.279 180.028 279.198 179.233 279.498 178.279M277.261 178.012C277.261 178.012 277.572 176.594 277.261 172.411M279.498 178.279C279.498 178.279 280.22 174.428 279.498 172.411" stroke="black" stroke-width="0.914505" stroke-linecap="round" stroke-linejoin="round"/>
<path d="M266.261 121.243L272.519 149.159C272.519 147.06 269.149 129.673 267.465 121.243H266.261Z" fill="black" stroke="black" stroke-width="0.914505" stroke-linecap="round" stroke-linejoin="round"/>
<path d="M215.001 75.2741C215.579 78.547 223.424 81.9323 227.756 83.4565C227.756 88.6547 224.387 92.5212 222.702 94.0455C219.814 94.0455 207.06 88.2697 205.856 81.5312C205.179 77.7407 206.017 54.7378 207.3 44.4696C205.134 42.785 206.578 38.6938 207.3 36.7685C207.526 36.1652 208.419 35.8705 209.225 35.8129C209.674 35.7808 207.781 27.1492 210.188 26.9085C212.594 26.6679 211.632 36.7756 212.835 36.7685C214.038 36.7615 214.038 26.9085 217.167 28.5931C218.588 29.3584 215.482 37.0162 215.001 43.2663C212.835 44.7103 214.279 71.1829 215.001 75.2741Z" fill="#F5B896" stroke="black" stroke-width="0.914505" stroke-linecap="round" stroke-linejoin="round"/>
<path d="M211.975 39.5095C211.614 40.499 209.198 39.9918 207.575 39.3999C205.952 38.8079 205.831 38.0947 206.097 37.366C206.362 36.6373 206.914 36.1692 208.537 36.7611C210.16 37.3531 212.336 38.52 211.975 39.5095Z" fill="#F5B896" stroke="black" stroke-width="0.914505" stroke-linecap="round" stroke-linejoin="round"/>
<path d="M211.464 41.9979C211.148 42.8634 209.035 42.4197 207.615 41.902C206.195 41.3843 206.09 40.7604 206.322 40.1231C206.554 39.4858 207.037 39.0763 208.457 39.5941C209.876 40.1118 211.779 41.1324 211.464 41.9979Z" fill="#F5B896" stroke="black" stroke-width="0.914505" stroke-linecap="round" stroke-linejoin="round"/>
<path d="M210.728 41.2251C211.148 42.3772 213.584 41.9241 215.207 41.3322C216.83 40.7402 216.916 39.9299 216.607 39.0815C216.297 38.2332 215.71 37.668 214.087 38.2599C212.464 38.8518 210.308 40.073 210.728 41.2251Z" fill="#F5B896" stroke="black" stroke-width="0.914505" stroke-linecap="round" stroke-linejoin="round"/>
<path d="M240.626 73.0231V54.4923C240.626 54.4923 242.552 44.8603 254.344 44.6197C266.136 44.379 267.34 54.0054 267.34 54.0054C267.34 58.6149 265.88 61.2034 264.073 62.6064C266.064 61.4091 269.078 60.4621 269.746 63.6374C270.516 67.2954 266.537 68.6912 264.452 68.9319C262.912 77.2106 264.452 83.2912 265.414 85.2967C263.489 89.1473 256.751 88.5055 253.622 87.7033V81.6868C240.723 82.0719 240.626 77.355 240.626 73.0231Z" fill="#F5B896" stroke="black" stroke-width="0.914505" stroke-linejoin="round"/>
<path d="M253.863 81.6867C255.549 81.61 258.319 81.1087 259.066 79.7208C259.098 79.6524 259.128 79.5857 259.157 79.5208C259.132 79.5894 259.101 79.6561 259.066 79.7208C257.898 82.2692 255.363 87.0875 253.863 87.4625V81.6867Z" fill="black" stroke="black" stroke-width="0.914505" stroke-linecap="round" stroke-linejoin="round"/>
<path d="M236.535 49.9146C237.659 46.5453 242.793 45.7431 247.124 46.3047C252.419 41.251 269.265 39.8068 272.634 54.7277C275.33 66.6644 268.383 73.6595 264.211 76.1463C264.211 76.1463 264.002 75.9988 263.971 75.9056C263.586 74.7504 264.131 70.6111 264.452 68.6858C268.302 68.6858 270.468 64.8353 268.784 62.4287C267.436 60.5034 264.211 62.1078 262.767 63.1507C260.457 62.5731 259.398 59.5408 259.157 58.0968C233.166 61.2254 235.412 53.2838 236.535 49.9146Z" fill="black" stroke="black" stroke-width="0.914505" stroke-linecap="round" stroke-linejoin="round"/>
<circle cx="273.356" cy="72.7771" r="6.01648" fill="black"/>
<path d="M274.078 69.1672C276.244 69.6486 277.929 70.8519 277.447 74.2211" stroke="white" stroke-width="0.914505" stroke-linecap="round" stroke-linejoin="round"/>
<path d="M245.681 48.6039C242.953 48.2664 238.22 48.6039 237.498 51.4385C236.739 54.4208 239.368 55.5554 240.304 55.6904" stroke="white" stroke-width="0.914505" stroke-linecap="round" stroke-linejoin="round"/>
<path d="M251.065 68.0727C250.678 66.8013 249.333 66.0846 248.062 66.472C246.79 66.8594 246.074 68.2041 246.461 69.4756C246.691 70.2287 247.256 70.7872 247.943 71.0368" stroke="black" stroke-width="0.721978" stroke-linecap="round" stroke-linejoin="round"/>
<circle cx="252.784" cy="66.6183" r="0.721978" fill="black"/>
<circle cx="245.083" cy="66.1318" r="0.721978" fill="black"/>
<path d="M252.544 62.2867C253.747 61.8054 255.913 62.5755 255.913 64.6933" stroke="black" stroke-width="0.721978" stroke-linecap="round" stroke-linejoin="round"/>
<path d="M245.565 62.0976C244.843 61.857 243.303 62.3864 242.917 63.5416" stroke="black" stroke-width="0.721978" stroke-linecap="round" stroke-linejoin="round"/>
<path d="M251.581 74.3145C251.18 74.876 250.378 75.9991 248.693 75.9991C247.345 75.9991 246.527 74.876 246.287 74.3145" stroke="black" stroke-width="0.721978" stroke-linecap="round" stroke-linejoin="round"/>
<path d="M252.784 88.5132C250.859 98.6208 252.929 107.525 254.469 108.488C256.009 109.451 255.432 100.546 265.299 85.1439" stroke="black" stroke-width="0.721978" stroke-linecap="round" stroke-linejoin="round"/>
<rect x="251.581" y="108.969" width="6.25714" height="12.033" rx="0.481319" fill="#E74F4F" stroke="black" stroke-width="0.721978" stroke-linecap="round" stroke-linejoin="round"/>
<path d="M251.822 112.098H257.598" stroke="black" stroke-width="0.721978" stroke-linecap="round" stroke-linejoin="round"/>
<path d="M263.416 94.7703C269.238 93.4577 267.026 88.3527 265.101 85.1439C262.213 88.8019 255.555 88.2725 252.586 87.5505C251.142 90.1978 249.121 94.1927 252.586 94.7703C256.052 95.3479 257.437 90.4384 258.079 88.7538C258.079 90.9197 258.079 95.9736 263.416 94.7703Z" fill="white" stroke="black" stroke-width="0.914505" stroke-linecap="round" stroke-linejoin="round"/>
<path d="M253.266 106.803C255.432 96.6955 256.876 93.0856 258.079 89.957" stroke="black" stroke-width="0.914505" stroke-linecap="round" stroke-linejoin="round"/>
<circle cx="0.721978" cy="0.721978" r="0.721978" transform="matrix(-0.952029 -0.306008 -0.306008 0.952029 253.781 98.522)" fill="black"/>
<circle cx="0.721978" cy="0.721978" r="0.721978" transform="matrix(-0.952029 -0.306008 -0.306008 0.952029 252.161 103.563)" fill="black"/>
</g>
<circle cx="407.14" cy="125.494" r="61.5125" fill="#E7EFFC" stroke="black" stroke-width="0.77001"/>
<mask id="mask4_682_92524" style="mask-type:alpha" maskUnits="userSpaceOnUse" x="346" y="64" width="123" height="123">
<circle cx="407.14" cy="125.494" r="61.1275" fill="#BABDDB"/>
</mask>
<g mask="url(#mask4_682_92524)">
<path d="M515.545 144.054C500.584 125.833 484.993 108.131 468.804 91.0123C446.763 67.693 423.636 45.4439 399.487 24.328C397.965 22.995 396.443 21.669 394.916 20.3498C394.437 19.9349 393.957 19.5216 393.476 19.109L392.628 18.3807C393.383 18.3015 394.122 18.2232 394.878 18.1602C407.511 29.0485 419.876 40.2356 431.959 51.7224C455.196 73.8294 477.394 97.0381 498.429 121.239C504.312 128.02 510.102 134.88 515.813 141.804C515.734 142.559 515.64 143.314 515.545 144.054Z" fill="#F8F9F9"/>
<path d="M424.14 19.4033C427.019 22.8652 429.882 26.3264 432.73 29.8198C450.382 51.392 467.483 73.4206 484.002 95.8741C494.889 110.665 505.524 125.644 515.923 140.813C516.002 139.963 516.08 139.113 516.159 138.247L514.611 135.998C513.962 135.056 513.313 134.116 512.662 133.176C510.633 130.243 508.593 127.316 506.547 124.401C490.641 101.758 474.169 79.5255 457.131 57.7174C447.172 44.956 437.009 32.3375 426.673 19.875C425.839 19.7183 425.005 19.5608 424.156 19.4033H424.14Z" fill="#F8F9F9"/>
<path d="M493.85 68.6995C498.24 73.5305 502.503 78.4553 506.657 83.4907C505.728 81.4132 504.722 79.3834 503.667 77.385C491.616 63.2399 478.606 49.9438 464.714 37.5919C461.898 35.0903 459.05 32.6203 456.155 30.1971C455.224 29.713 454.282 29.2421 453.333 28.7834C453.075 28.6582 452.816 28.5345 452.556 28.4115C452.253 28.2671 451.948 28.1242 451.643 27.9828C451.114 27.737 450.583 27.4942 450.051 27.2545C465.658 39.9367 480.305 53.8145 493.835 68.6995H493.85Z" fill="#F8F9F9"/>
<path d="M383.928 19.7029C388.254 24.6907 392.565 29.6785 396.844 34.6977C408.392 48.2451 419.751 61.9661 430.747 75.9698C441.697 89.9267 452.285 104.182 462.307 118.832C472.234 133.339 481.595 148.223 490.153 163.565C494.134 170.693 497.941 177.9 501.544 185.216C501.874 184.649 502.204 184.068 502.519 183.485C498.145 174.674 493.489 166.004 488.596 157.476C479.77 142.087 470.157 127.155 459.994 112.6C449.894 98.1244 439.243 84.0262 428.278 70.2107C417.155 56.207 405.67 42.4706 394.028 28.8917C393.142 27.8584 392.257 26.8265 391.37 25.7963L389.494 23.6181L388.259 22.1891C387.44 21.2433 386.621 20.2991 385.8 19.3564C385.448 19.4179 385.097 19.4793 384.748 19.5439C384.472 19.5946 384.198 19.6476 383.928 19.7029Z" fill="#F8F9F9"/>
<path d="M480.289 165.154C468.647 150.285 456.376 135.919 443.522 122.072H443.506C430.59 108.178 417.107 94.82 403.09 82.0432C389.072 69.2665 374.52 57.0721 359.464 45.523C354.775 41.9351 350.056 38.4109 345.289 34.949C345.776 34.6347 346.28 34.3197 346.783 34.0209C349.568 36.0346 352.337 38.0959 355.09 40.1572C370.24 51.5649 384.919 63.5864 399.062 76.2057C413.221 88.825 426.846 102.042 439.888 115.81C452.993 129.625 465.5 144.006 477.394 158.876C485.087 168.49 492.513 178.324 499.656 188.347L499.63 188.388C499.324 188.878 499.018 189.367 498.712 189.841C492.765 181.471 486.629 173.242 480.289 165.154Z" fill="#F8F9F9"/>
<path d="M301.521 87.1094C309.041 91.3742 316.404 95.9371 323.578 100.752C336.589 109.484 349.017 119.051 360.958 129.2C372.994 139.412 384.541 150.19 395.727 161.314C406.928 172.455 417.784 183.925 428.45 195.585C438.22 206.253 447.817 217.063 457.398 227.904C458.185 227.479 458.971 227.055 459.758 226.614C459.554 226.197 459.345 225.78 459.137 225.363C458.928 224.946 458.72 224.528 458.515 224.112C450.649 208.409 442.122 193.051 433.06 178.025C424.014 162.982 414.433 148.255 404.49 133.779C394.484 119.209 384.085 104.89 373.465 90.7603C362.925 76.7566 352.164 62.9096 341.277 49.1732C339.358 46.75 337.438 44.3268 335.503 41.9197C335.098 42.2347 334.692 42.5651 334.287 42.8955L334.229 42.9423C337.501 47.0489 340.773 51.1715 344.03 55.2942C355.011 69.2035 365.851 83.2387 376.439 97.4476C386.885 111.499 397.096 125.722 406.913 140.23C416.745 154.769 426.201 169.575 435.121 184.697C442.94 197.961 450.35 211.493 457.241 225.261C446.747 213.397 436.222 201.58 425.477 189.936C414.716 178.277 403.735 166.822 392.392 155.729C381.111 144.715 369.469 134.062 357.308 124.024C345.257 114.064 332.703 104.686 319.582 96.173C313.887 92.4751 308.066 88.951 302.15 85.5989C301.93 86.1029 301.725 86.6061 301.505 87.1255L301.521 87.1094Z" fill="#F8F9F9"/>
<path d="M307.147 180.47L308.664 182.006C323.295 196.86 337.627 212.044 351.614 227.511C350.056 226.661 348.514 225.78 346.988 224.852C342.158 219.549 337.281 214.262 332.357 209.023C323.846 199.928 315.209 190.959 306.461 182.1C306.002 181.257 305.556 180.405 305.121 179.545C304.753 178.814 304.392 178.076 304.039 177.333C305.023 178.318 306.007 179.316 306.992 180.314L307.147 180.47Z" fill="#F8F9F9"/>
<path d="M366.166 191.761C378.579 207.873 390.473 224.379 402.193 240.979C402.558 240.988 402.922 240.996 403.287 241.002C403.599 241.008 403.911 241.011 404.223 241.011C399.393 234.166 394.547 227.353 389.639 220.572C373.104 197.709 355.987 175.224 337.344 154.013C324.003 138.846 309.875 124.338 294.741 110.963C294.631 111.609 294.536 112.238 294.442 112.883C299.995 117.808 305.407 122.906 310.709 128.114C330.768 147.892 348.986 169.449 366.166 191.745V191.761Z" fill="#F8F9F9"/>
<path d="M295.233 128.849C294.59 127.824 293.948 126.799 293.309 125.77C293.34 124.8 293.387 123.845 293.434 122.89C297.139 128.822 300.848 134.75 304.557 140.678C308.266 146.606 311.975 152.534 315.68 158.466C328.628 179.19 341.592 199.896 354.539 220.603C357.009 224.568 359.495 228.517 361.965 232.483C361.304 232.2 360.659 231.916 359.998 231.633C359.967 231.617 359.931 231.601 359.896 231.586L359.794 231.538C359.719 231.508 359.644 231.475 359.569 231.441C359.487 231.405 359.404 231.367 359.322 231.334C351.566 218.935 343.81 206.52 336.054 194.122C323.106 173.414 310.142 152.692 297.194 131.986C296.543 130.937 295.888 129.893 295.233 128.849Z" fill="#F8F9F9"/>
<path d="M293.309 125.785V125.77V125.785Z" fill="#F8F9F9"/>
</g>
<mask id="mask5_682_92524" style="mask-type:alpha" maskUnits="userSpaceOnUse" x="306" y="41" width="185" height="157">
<path d="M408.825 186.622C393.904 186.381 384.999 183.012 382.112 181.327L379.224 189.51L316.171 197.211L306.785 93.2458L375.132 41.2634L490.168 101.669L452.143 191.675L433.372 180.846C423.746 185.466 412.996 186.622 408.825 186.622Z" fill="#D9D9D9"/>
</mask>
<g mask="url(#mask5_682_92524)">
<path d="M407.315 128.551C391.912 129.995 386.297 126.065 382.045 124.46C381.631 131.206 376.51 137.616 374.585 140.344C380.553 142.462 393.437 141.707 399.132 141.066C389.121 157.816 385.976 177.887 385.655 188.476C395.108 188.476 402.313 189.647 411.954 191.13C421.339 192.574 425.204 190.16 429.455 189.198C424.835 186.695 423.439 170.266 423.439 160.318C426.327 158.634 433.546 157.431 438.36 156.227C435.279 144.868 423.92 131.118 418.626 125.664L407.315 128.551Z" fill="#465173"/>
<path d="M423.439 160.318C426.327 158.634 433.546 157.431 438.36 156.227C435.279 144.868 423.92 131.118 418.626 125.664L407.315 128.551C391.912 129.995 386.297 126.065 382.045 124.46C381.631 131.206 376.51 137.616 374.585 140.344C380.553 142.462 393.437 141.707 399.132 141.066M423.439 160.318C423.439 170.266 424.835 186.695 429.455 189.198C425.204 190.16 421.339 192.574 411.954 191.13C402.313 189.647 395.108 188.476 385.655 188.476C385.976 177.887 389.121 157.816 399.132 141.066M423.439 160.318L418.626 162.725C418.626 153.828 418.626 145.886 417.663 138.9M399.132 141.066C399.907 139.718 401.687 137.784 402.568 136.741" stroke="black" stroke-width="0.914505" stroke-linecap="round" stroke-linejoin="round"/>
<path d="M387.822 188.476C385.319 181.16 389.667 166.415 391.191 158.875C388.688 166.383 385.977 180.694 385.415 188.476H387.822Z" fill="black" stroke="black" stroke-width="0.914505" stroke-linecap="round" stroke-linejoin="round"/>
<path d="M374.104 140.104C373.141 139.911 373.022 136.654 373.423 134.809C374.386 135.05 377.058 133.854 378.261 134.094C377.539 135.779 375.066 140.296 374.104 140.104Z" fill="black" stroke="black" stroke-width="0.914505" stroke-linecap="round" stroke-linejoin="round"/>
<path d="M438.185 156.234C436.5 159.122 430.243 169.229 418.691 162.743C424.949 158.881 433.612 155.993 438.185 156.234Z" fill="black" stroke="black" stroke-width="0.914505" stroke-linecap="round" stroke-linejoin="round"/>
<path d="M396.309 162.009C396.309 160.325 399.853 158.49 402.5 158.159C409.589 157.273 421.84 164.611 424.641 164.919C424.948 165.057 425.589 164.021 423.919 161.04C427.962 159.115 434.748 156.622 436.914 156.462C438.84 159.109 446.607 179.818 440.831 182.947C432.168 186.557 409.546 163.689 407.861 165.86C407.861 172.345 406.176 173.494 405.388 173.789C403.848 174.367 402.567 173.08 402.808 172.358C402.567 173.08 400.815 174.03 399.612 173.549C398.409 173.067 397.995 172.345 398.716 171.395C396.55 173.32 394.222 171.102 395.214 170.42C397.794 168.645 398.337 164.161 399.363 162.375C398.014 164.215 396.309 164.448 396.309 162.009Z" fill="#AF6D53"/>
<path d="M398.716 171.395C396.55 173.32 394.222 171.102 395.214 170.42C397.994 168.507 398.409 163.448 399.612 162.009C398.235 164.175 396.309 164.601 396.309 162.009C396.309 160.325 399.853 158.49 402.5 158.159C409.589 157.273 421.84 164.611 424.641 164.919M398.716 171.395C397.995 172.345 398.409 173.067 399.612 173.549C400.815 174.03 402.567 173.08 402.808 172.358M398.716 171.395C398.716 171.395 401.056 169.711 401.056 165.86M402.808 172.358C402.567 173.08 403.848 174.367 405.388 173.789C406.176 173.494 407.861 172.345 407.861 165.86C409.546 163.689 432.168 186.557 440.831 182.947C446.607 179.818 438.84 159.109 436.914 156.462C434.748 156.622 427.962 159.115 423.919 161.04C425.589 164.021 424.948 165.057 424.641 164.919M402.808 172.358C402.808 172.358 404.733 170.42 404.251 165.86M436.914 170.42L424.641 164.919" stroke="black" stroke-width="0.914505" stroke-linecap="round" stroke-linejoin="round"/>
<path d="M372.726 159.591L367.432 135.538L319.126 114.601L328.511 159.591L378.021 182.948L417.248 177.16L406.726 172.859C406.726 172.859 405.456 174.031 404.974 174.043C404.497 174.056 402.36 173.57 402.825 172.405C402.832 172.387 402.836 172.377 402.836 172.377C402.832 172.386 402.828 172.396 402.825 172.405C402.739 172.598 402.128 173.75 399.921 173.309C397.928 172.91 398.575 171.695 398.857 171.289C398.925 171.209 398.958 171.156 398.958 171.156C398.958 171.156 398.915 171.205 398.857 171.289C398.574 171.623 397.69 172.414 396.137 171.637C395.073 171.105 395.43 170.3 396.137 169.471C396.71 168.798 397.099 168.027 397.099 168.027L380.012 159.591H372.726Z" fill="white"/>
<path d="M372.726 159.591L367.432 135.538L319.126 114.601L328.511 159.591L378.021 182.948L417.248 177.16L406.726 172.859C406.726 172.859 405.456 174.031 404.974 174.043C404.493 174.056 402.327 173.562 402.836 172.377C402.836 172.377 402.327 173.79 399.921 173.309C397.514 172.828 398.958 171.156 398.958 171.156C398.958 171.156 398.062 172.599 396.137 171.637C395.073 171.105 395.43 170.3 396.137 169.471M372.726 159.591H380.012L397.099 168.027M372.726 159.591L376.336 178.603M397.099 168.027C397.099 168.027 396.71 168.798 396.137 169.471M397.099 168.027L396.137 169.471" stroke="black" stroke-width="0.914505" stroke-linecap="round" stroke-linejoin="round"/>
<path d="M349.058 145.646C350.261 146.849 351.946 149.833 349.058 152.143" stroke="black" stroke-width="0.914505" stroke-linecap="round" stroke-linejoin="round"/>
<path d="M345.206 144.924C344.117 146.082 342.591 148.956 345.206 151.181" stroke="black" stroke-width="0.914505" stroke-linecap="round" stroke-linejoin="round"/>
<path d="M393.806 113.647V95.1165C393.806 95.1165 395.731 85.4845 407.523 85.2438C419.316 85.0032 420.519 94.6295 420.519 94.6295C420.519 99.239 419.06 101.828 417.253 103.231C419.243 102.033 422.257 101.086 422.925 104.262C423.696 107.92 419.717 109.315 417.631 109.556C416.091 117.835 417.631 123.915 418.594 125.921C416.668 129.771 409.93 129.13 406.801 128.327V122.311C393.902 122.696 393.806 117.979 393.806 113.647Z" fill="#AF6D53" stroke="black" stroke-width="0.914505" stroke-linejoin="round"/>
<path d="M407.042 122.311C408.728 122.234 411.498 121.733 412.245 120.345C412.277 120.277 412.307 120.21 412.336 120.145C412.311 120.214 412.28 120.28 412.245 120.345C411.077 122.893 408.542 127.712 407.042 128.087V122.311Z" fill="black" stroke="black" stroke-width="0.914505" stroke-linecap="round" stroke-linejoin="round"/>
<path d="M415.963 104.256V96.3145C414.021 95.3518 410.411 93.9079 404.652 93.9079C399.824 93.9079 395.267 95.5123 393.582 96.5551C393.341 94.1485 395.507 85.2441 408.262 85.2441C418.466 85.2441 420.857 92.7848 420.777 96.5551V102.09C419.044 101.705 416.846 103.374 415.963 104.256Z" fill="black" stroke="black" stroke-width="0.914505" stroke-linecap="round" stroke-linejoin="round"/>
<circle cx="409.93" cy="91.0199" r="0.481319" fill="white"/>
<circle cx="405.598" cy="89.0946" r="0.481319" fill="white"/>
<circle cx="401.747" cy="91.5012" r="0.481319" fill="white"/>
<circle cx="406.56" cy="91.9825" r="0.481319" fill="white"/>
<path d="M404.457 108.599C404.07 107.328 402.725 106.611 401.454 106.998C400.183 107.386 399.466 108.73 399.853 110.002C400.083 110.755 400.648 111.313 401.335 111.563" stroke="black" stroke-width="0.721978" stroke-linecap="round" stroke-linejoin="round"/>
<circle cx="406.177" cy="107.145" r="0.721978" fill="black"/>
<circle cx="398.475" cy="106.658" r="0.721978" fill="black"/>
<path d="M405.936 102.813C407.139 102.332 409.305 103.102 409.305 105.22" stroke="black" stroke-width="0.721978" stroke-linecap="round" stroke-linejoin="round"/>
<path d="M398.957 102.624C398.235 102.383 396.695 102.913 396.31 104.068" stroke="black" stroke-width="0.721978" stroke-linecap="round" stroke-linejoin="round"/>
<path d="M404.973 114.841C404.572 115.402 403.77 116.525 402.085 116.525C400.738 116.525 399.919 115.402 399.679 114.841" stroke="black" stroke-width="0.721978" stroke-linecap="round" stroke-linejoin="round"/>
<circle cx="5.2945" cy="5.2945" r="4.83725" transform="matrix(-1 0 0 1 423.986 101.009)" fill="#E74F4F" stroke="black" stroke-width="0.914505"/>
<path fill-rule="evenodd" clip-rule="evenodd" d="M415.644 83.7227C413.781 82.3095 411.472 81.8711 408.434 83.3841C411.195 83.0991 413.244 83.7143 414.771 84.873C416.312 86.0426 417.396 87.8221 418.104 89.9895C419.525 94.342 419.363 100.044 418.581 104.686L420.004 104.926C420.804 100.183 421.002 94.2133 419.476 89.5412C418.71 87.1962 417.492 85.1252 415.644 83.7227Z" fill="white" stroke="black" stroke-width="0.481319"/>
<path d="M397.353 114.727C397.353 115.435 396.778 116.01 396.069 116.01C395.36 116.01 394.786 115.435 394.786 114.727C394.786 114.018 395.36 113.443 396.069 113.443C396.778 113.443 397.353 114.018 397.353 114.727ZM393.615 106.687C392.828 107.75 392.036 109.401 392.146 110.925C392.2 111.677 392.475 112.399 393.083 113.015C393.695 113.634 394.66 114.162 396.122 114.492L396.016 114.961C394.494 114.618 393.436 114.056 392.741 113.353C392.043 112.647 391.728 111.813 391.666 110.96C391.544 109.27 392.411 107.504 393.229 106.401L393.615 106.687Z" fill="black"/>
<path d="M401.482 124.414C394.567 124.071 393.182 118.451 394.326 110.515C394.611 112.886 396.314 113.832 397.455 115.569C397.749 116.017 397.589 117.596 397.936 117.975C398.658 119.9 400.439 120.411 402.43 120.485C404.306 120.555 405.396 120.276 406.359 118.938C407.322 117.599 406.91 116.291 407.803 115.809C412.834 113.094 417.101 110.157 418.141 109.306C418.141 112.194 417.189 125.195 401.482 124.414Z" fill="black" stroke="black" stroke-width="0.914505" stroke-linecap="round" stroke-linejoin="round"/>
<path d="M404.433 111.237L402.027 111.477C402.027 111.477 405.396 113.162 406.257 114.125C407.119 115.087 407.081 117.253 407.081 117.253C407.081 117.253 407.321 114.365 406.599 113.162C405.877 111.959 404.433 111.237 404.433 111.237Z" fill="black" stroke="black" stroke-width="0.914505" stroke-linecap="round" stroke-linejoin="round"/>
<path d="M399.419 111.237L401.825 111.477C401.825 111.477 399.038 112.921 398.177 113.884C397.315 114.847 397.695 117.253 397.695 117.253C397.695 117.253 396.531 114.365 397.253 113.162C397.975 111.959 399.419 111.237 399.419 111.237Z" fill="black" stroke="black" stroke-width="0.914505" stroke-linecap="round" stroke-linejoin="round"/>
<path d="M402.749 122.066L402.268 122.548" stroke="white" stroke-width="0.914505" stroke-linecap="round" stroke-linejoin="round"/>
<path d="M406.346 121.967L406.372 122.647" stroke="white" stroke-width="0.914505" stroke-linecap="round" stroke-linejoin="round"/>
<path d="M408.172 122.066L408.197 122.747" stroke="white" stroke-width="0.914505" stroke-linecap="round" stroke-linejoin="round"/>
<path d="M400.342 121.104L400.824 121.585" stroke="white" stroke-width="0.914505" stroke-linecap="round" stroke-linejoin="round"/>
<path d="M410.807 120.699L410.376 121.226" stroke="white" stroke-width="0.914505" stroke-linecap="round" stroke-linejoin="round"/>
<path d="M398.529 121.029L398.786 121.659" stroke="white" stroke-width="0.914505" stroke-linecap="round" stroke-linejoin="round"/>
<path d="M415.273 110.424L415.017 111.055" stroke="black" stroke-width="0.914505" stroke-linecap="round" stroke-linejoin="round"/>
<path d="M411.302 112.49L411.773 112.981" stroke="black" stroke-width="0.914505" stroke-linecap="round" stroke-linejoin="round"/>
<path d="M408.661 113.95L408.383 114.572" stroke="black" stroke-width="0.914505" stroke-linecap="round" stroke-linejoin="round"/>
<path d="M403.483 119.184L403.279 119.834" stroke="black" stroke-width="0.914505" stroke-linecap="round" stroke-linejoin="round"/>
<path d="M409.968 113.61L410.055 114.285" stroke="black" stroke-width="0.914505" stroke-linecap="round" stroke-linejoin="round"/>
<path d="M404.743 119.179L404.907 119.839" stroke="black" stroke-width="0.914505" stroke-linecap="round" stroke-linejoin="round"/>
<path d="M413.539 111.659L413.581 112.338" stroke="black" stroke-width="0.914505" stroke-linecap="round" stroke-linejoin="round"/>
<path d="M411.973 111.532L412.262 112.148" stroke="black" stroke-width="0.914505" stroke-linecap="round" stroke-linejoin="round"/>
<path d="M396.369 112.44L396.027 113.028" stroke="black" stroke-width="0.914505" stroke-linecap="round" stroke-linejoin="round"/>
<path d="M398.888 116.921L398.294 117.255" stroke="black" stroke-width="0.914505" stroke-linecap="round" stroke-linejoin="round"/>
<path d="M400.99 119.087L401.075 119.762" stroke="black" stroke-width="0.914505" stroke-linecap="round" stroke-linejoin="round"/>
<path d="M399.838 118.381L399.558 119.001" stroke="black" stroke-width="0.914505" stroke-linecap="round" stroke-linejoin="round"/>
<path d="M396.01 111.539L395.471 111.955" stroke="black" stroke-width="0.914505" stroke-linecap="round" stroke-linejoin="round"/>
<path d="M369.895 116.381C370.473 119.654 378.319 123.039 382.65 124.563C382.65 129.761 379.281 133.628 377.596 135.152C374.709 135.152 361.954 129.376 360.751 122.638C360.074 118.847 360.911 95.8446 362.194 85.5765C360.028 83.8918 361.472 79.8006 362.194 77.8753C361.352 77.4622 359.795 74.2358 359.187 71.8042C358.579 69.3726 360.402 69.3726 361.01 70.1831C362.074 71.6015 363.036 74.4384 364.119 76.9197C364.568 76.8877 362.675 68.256 365.082 68.0153C367.489 67.7747 366.526 77.8824 367.729 77.8753C368.932 77.8683 368.932 68.0153 372.061 69.7C373.482 70.4652 370.376 78.123 369.895 84.3731C367.729 85.8171 369.173 112.29 369.895 116.381Z" fill="#AF6D53" stroke="black" stroke-width="0.914505" stroke-linecap="round" stroke-linejoin="round"/>
<path d="M366.359 83.1048C366.043 83.9703 363.93 83.5267 362.51 83.0089C361.091 82.4912 360.985 81.8673 361.217 81.23C361.45 80.5927 361.932 80.1833 363.352 80.701C364.772 81.2187 366.675 82.2394 366.359 83.1048Z" fill="#AF6D53" stroke="black" stroke-width="0.914505" stroke-linecap="round" stroke-linejoin="round"/>
<path d="M365.623 82.3324C366.043 83.4845 368.478 83.0314 370.102 82.4395C371.725 81.8475 371.81 81.0372 371.501 80.1888C371.192 79.3405 370.605 78.7753 368.981 79.3672C367.358 79.9591 365.202 81.1803 365.623 82.3324Z" fill="#AF6D53" stroke="black" stroke-width="0.914505" stroke-linecap="round" stroke-linejoin="round"/>
</g>
</svg>
