<svg width="57" height="48" viewBox="0 0 57 48" fill="none" xmlns="http://www.w3.org/2000/svg">
<mask id="mask0_7864_43744" style="mask-type:alpha" maskUnits="userSpaceOnUse" x="0" y="0" width="18" height="48">
<path d="M0 0.312988H17.1533V47.6871H0V0.312988Z" fill="white"/>
</mask>
<g mask="url(#mask0_7864_43744)">
<path fill-rule="evenodd" clip-rule="evenodd" d="M16.9886 42.9114C17.1453 42.6419 17.1929 42.3226 17.1215 42.0192C17.0502 41.7157 16.8654 41.451 16.6051 41.2794C10.9762 37.5911 7.25568 31.2321 7.25568 23.9994C7.25568 16.7678 10.9762 10.4087 16.6051 6.7204C16.8653 6.54878 17.0501 6.28411 17.1214 5.98066C17.1927 5.6772 17.1452 5.35796 16.9886 5.0884L14.5858 0.926802C14.5018 0.782279 14.3895 0.656305 14.2554 0.556519C14.1213 0.456734 13.9684 0.385215 13.8059 0.346301C13.6434 0.307387 13.4746 0.301888 13.3099 0.330137C13.1452 0.358387 12.9879 0.419797 12.8477 0.510642C5.12208 5.47288 0 14.1359 0 23.9999C0 33.8639 5.1216 42.5265 12.8477 47.4892C12.9879 47.58 13.1452 47.6414 13.3098 47.6696C13.4745 47.6979 13.6432 47.6924 13.8057 47.6535C13.9682 47.6147 14.1212 47.5432 14.2552 47.4435C14.3893 47.3438 14.5018 47.218 14.5858 47.0735L16.9886 42.9114Z" fill="#005DEA"/>
</g>
<path fill-rule="evenodd" clip-rule="evenodd" d="M41.2285 0.926445L38.8261 5.08901C38.6697 5.35839 38.6222 5.6774 38.6935 5.98066C38.7647 6.28392 38.9492 6.54845 39.2092 6.72005C44.8381 10.4084 48.5581 16.7679 48.5581 24C48.5581 31.2322 44.8381 37.5912 39.2092 41.28C38.9492 41.4516 38.7647 41.7162 38.6935 42.0194C38.6222 42.3227 38.6697 42.6417 38.8261 42.9111L41.2285 47.0732C41.3125 47.2176 41.4249 47.3436 41.559 47.4433C41.693 47.5431 41.8459 47.6145 42.0084 47.6535C42.1709 47.6924 42.3397 47.6979 42.5044 47.6697C42.6691 47.6415 42.8263 47.5801 42.9666 47.4893C50.6932 42.5266 55.8138 33.864 55.8138 24C55.8138 14.136 50.6922 5.47349 42.9666 0.510285C42.8263 0.419538 42.6691 0.35822 42.5044 0.330048C42.3397 0.301876 42.171 0.307437 42.0086 0.346394C41.8461 0.385351 41.6932 0.456892 41.5592 0.556681C41.4252 0.656471 41.3129 0.78243 41.229 0.926925" fill="#005DEA"/>
</svg>
